<svg xmlns="http://www.w3.org/2000/svg" xmlns:xlink="http://www.w3.org/1999/xlink" contentStyleType="text/css" data-diagram-type="SEQUENCE" height="1429px" preserveAspectRatio="none" style="width:1459px;height:1429px;background:#FFFFFF;" version="1.1" viewBox="0 0 1459 1429" width="1459px" zoomAndPan="magnify"><title>Healthcare Communication Network Creation Flow</title><defs/><g><text fill="#000000" font-family="Verdana" font-size="22" font-weight="bold" lengthAdjust="spacing" textLength="625.1738" x="415.8608" y="37.1182">Healthcare Communication Network Creation Flow</text><g><title>Matrix Synapse</title><rect fill="#FFFFFF" height="83.4983" style="stroke:#000000;stroke-width:1;" width="10" x="528.1338" y="365.0608"/></g><rect fill="#FFFFFF" height="85.1973" style="stroke:#000000;stroke-width:1;" width="576.1338" x="218.0479" y="507.3584"/><rect fill="#FFFFFF" height="315.5918" style="stroke:#000000;stroke-width:1;" width="1224.8477" x="218.0479" y="932.3481"/><g><title>Healthcare Platform</title><rect fill="#000000" fill-opacity="0.00000" height="1274.3706" width="8" x="92.8223" y="101.7666"/><line style="stroke:#000000;stroke-width:1;" x1="96" x2="96" y1="101.7666" y2="1376.1372"/></g><g><title>Platform Bridge</title><rect fill="#000000" fill-opacity="0.00000" height="1274.3706" width="8" x="295.7183" y="101.7666"/><line style="stroke:#000000;stroke-width:1;" x1="299.0479" x2="299.0479" y1="101.7666" y2="1376.1372"/></g><g><title>Matrix Synapse</title><rect fill="#000000" fill-opacity="0.00000" height="1274.3706" width="8" x="529.1338" y="101.7666"/><line style="stroke:#000000;stroke-width:1;" x1="533.0205" x2="533.0205" y1="101.7666" y2="1376.1372"/></g><g><title>ma1sd Identity Server</title><rect fill="#000000" fill-opacity="0.00000" height="1274.3706" width="8" x="706.3696" y="101.7666"/><line style="stroke:#000000;stroke-width:1;" x1="710.2471" x2="710.2471" y1="101.7666" y2="1376.1372"/></g><g><title>ma1sd Bridge</title><rect fill="#000000" fill-opacity="0.00000" height="1274.3706" width="8" x="878.0239" y="101.7666"/><line style="stroke:#000000;stroke-width:1;" x1="881.4922" x2="881.4922" y1="101.7666" y2="1376.1372"/></g><g><title>Backend System</title><rect fill="#000000" fill-opacity="0.00000" height="1274.3706" width="8" x="1056.3545" y="101.7666"/><line style="stroke:#000000;stroke-width:1;" x1="1060.2466" x2="1060.2466" y1="101.7666" y2="1376.1372"/></g><g><title>External Homeserver</title><rect fill="#000000" fill-opacity="0.00000" height="1274.3706" width="8" x="1250.5537" y="101.7666"/><line style="stroke:#000000;stroke-width:1;" x1="1254.4624" x2="1254.4624" y1="101.7666" y2="1376.1372"/></g><g class="participant participant-head" data-participant="Platform"><rect fill="#FFFFFF" height="31.0146" rx="2.5" ry="2.5" style="stroke:#000000;stroke-width:1;" width="153.6445" x="20" y="69.752"/><text fill="#000000" font-family="Verdana" font-size="14" lengthAdjust="spacing" textLength="139.6445" x="27" y="90.8271">Healthcare Platform</text></g><g class="participant participant-tail" data-participant="Platform"><rect fill="#FFFFFF" height="31.0146" rx="2.5" ry="2.5" style="stroke:#000000;stroke-width:1;" width="153.6445" x="20" y="1375.1372"/><text fill="#000000" font-family="Verdana" font-size="14" lengthAdjust="spacing" textLength="139.6445" x="27" y="1396.2124">Healthcare Platform</text></g><g class="participant participant-head" data-participant="Bridge"><rect fill="#FFFFFF" height="31.0146" rx="2.5" ry="2.5" style="stroke:#000000;stroke-width:1;" width="123.3408" x="238.0479" y="69.752"/><text fill="#000000" font-family="Verdana" font-size="14" lengthAdjust="spacing" textLength="109.3408" x="245.0479" y="90.8271">Platform Bridge</text></g><g class="participant participant-tail" data-participant="Bridge"><rect fill="#FFFFFF" height="31.0146" rx="2.5" ry="2.5" style="stroke:#000000;stroke-width:1;" width="123.3408" x="238.0479" y="1375.1372"/><text fill="#000000" font-family="Verdana" font-size="14" lengthAdjust="spacing" textLength="109.3408" x="245.0479" y="1396.2124">Platform Bridge</text></g><g class="participant participant-head" data-participant="Synapse"><rect fill="#FFFFFF" height="31.0146" rx="2.5" ry="2.5" style="stroke:#000000;stroke-width:1;" width="122.2266" x="472.0205" y="69.752"/><text fill="#000000" font-family="Verdana" font-size="14" lengthAdjust="spacing" textLength="108.2266" x="479.0205" y="90.8271">Matrix Synapse</text></g><g class="participant participant-tail" data-participant="Synapse"><rect fill="#FFFFFF" height="31.0146" rx="2.5" ry="2.5" style="stroke:#000000;stroke-width:1;" width="122.2266" x="472.0205" y="1375.1372"/><text fill="#000000" font-family="Verdana" font-size="14" lengthAdjust="spacing" textLength="108.2266" x="479.0205" y="1396.2124">Matrix Synapse</text></g><g class="participant participant-head" data-participant="Identity"><rect fill="#FFFFFF" height="31.0146" rx="2.5" ry="2.5" style="stroke:#000000;stroke-width:1;" width="172.2451" x="624.2471" y="69.752"/><text fill="#000000" font-family="Verdana" font-size="14" lengthAdjust="spacing" textLength="158.2451" x="631.2471" y="90.8271">ma1sd Identity Server</text></g><g class="participant participant-tail" data-participant="Identity"><rect fill="#FFFFFF" height="31.0146" rx="2.5" ry="2.5" style="stroke:#000000;stroke-width:1;" width="172.2451" x="624.2471" y="1375.1372"/><text fill="#000000" font-family="Verdana" font-size="14" lengthAdjust="spacing" textLength="158.2451" x="631.2471" y="1396.2124">ma1sd Identity Server</text></g><g class="participant participant-head" data-participant="IdentityBridge"><rect fill="#FFFFFF" height="31.0146" rx="2.5" ry="2.5" style="stroke:#000000;stroke-width:1;" width="111.0635" x="826.4922" y="69.752"/><text fill="#000000" font-family="Verdana" font-size="14" lengthAdjust="spacing" textLength="97.0635" x="833.4922" y="90.8271">ma1sd Bridge</text></g><g class="participant participant-tail" data-participant="IdentityBridge"><rect fill="#FFFFFF" height="31.0146" rx="2.5" ry="2.5" style="stroke:#000000;stroke-width:1;" width="111.0635" x="826.4922" y="1375.1372"/><text fill="#000000" font-family="Verdana" font-size="14" lengthAdjust="spacing" textLength="97.0635" x="833.4922" y="1396.2124">ma1sd Bridge</text></g><g class="participant participant-head" data-participant="Backend"><rect fill="#FFFFFF" height="48.0293" rx="2.5" ry="2.5" style="stroke:#000000;stroke-width:1;" width="166.2158" x="977.2466" y="52.7373"/><text fill="#000000" font-family="Verdana" font-size="14" lengthAdjust="spacing" textLength="117.0518" x="1001.8286" y="73.8125">Backend System</text><text fill="#000000" font-family="Verdana" font-size="14" lengthAdjust="spacing" textLength="152.2158" x="984.2466" y="90.8271">(Keycloak/mCSD/DB)</text></g><g class="participant participant-tail" data-participant="Backend"><rect fill="#FFFFFF" height="48.0293" rx="2.5" ry="2.5" style="stroke:#000000;stroke-width:1;" width="166.2158" x="977.2466" y="1375.1372"/><text fill="#000000" font-family="Verdana" font-size="14" lengthAdjust="spacing" textLength="117.0518" x="1001.8286" y="1396.2124">Backend System</text><text fill="#000000" font-family="Verdana" font-size="14" lengthAdjust="spacing" textLength="152.2158" x="984.2466" y="1413.2271">(Keycloak/mCSD/DB)</text></g><g class="participant participant-head" data-participant="External Homeserver"><rect fill="#FFFFFF" height="31.0146" rx="2.5" ry="2.5" style="stroke:#000000;stroke-width:1;" width="162.1826" x="1173.4624" y="69.752"/><text fill="#000000" font-family="Verdana" font-size="14" lengthAdjust="spacing" textLength="148.1826" x="1180.4624" y="90.8271">External Homeserver</text></g><g class="participant participant-tail" data-participant="External Homeserver"><rect fill="#FFFFFF" height="31.0146" rx="2.5" ry="2.5" style="stroke:#000000;stroke-width:1;" width="162.1826" x="1173.4624" y="1375.1372"/><text fill="#000000" font-family="Verdana" font-size="14" lengthAdjust="spacing" textLength="148.1826" x="1180.4624" y="1396.2124">External Homeserver</text></g><g><title>Matrix Synapse</title><rect fill="#FFFFFF" height="83.4983" style="stroke:#000000;stroke-width:1;" width="10" x="528.1338" y="365.0608"/></g><rect fill="#FFFFFF" height="3" style="stroke:#FFFFFF;stroke-width:1;" width="1447.8955" x="5" y="132.6663"/><line style="stroke:#000000;stroke-width:0.5;" x1="5" x2="1452.8955" y1="132.6663" y2="132.6663"/><line style="stroke:#000000;stroke-width:0.5;" x1="5" x2="1452.8955" y1="135.6663" y2="135.6663"/><rect fill="#FFFFFF" height="23.7993" style="stroke:#000000;stroke-width:1;" width="162.186" x="647.8547" y="121.7666"/><text fill="#000000" font-family="Verdana" font-size="13" font-weight="bold" lengthAdjust="spacing" textLength="143.7427" x="653.8547" y="138.8364">Care Team Creation</text><g class="message" data-participant-1="Platform" data-participant-2="Bridge"><polygon fill="#000000" points="287.7183,184.2649,297.7183,188.2649,287.7183,192.2649,291.7183,188.2649" style="stroke:#000000;stroke-width:1;"/><line style="stroke:#000000;stroke-width:1;" x1="96.8223" x2="293.7183" y1="188.2649" y2="188.2649"/><text fill="#000000" font-family="Verdana" font-size="13" lengthAdjust="spacing" textLength="178.896" x="103.8223" y="183.5354">CareTeam created/updated</text></g><path d="M304,160.5659 L304,201.5659 L527,201.5659 L527,170.5659 L517,160.5659 L304,160.5659" fill="#FFFFFF" style="stroke:#000000;stroke-width:1;"/><path d="M517,160.5659 L517,170.5659 L527,170.5659 L517,160.5659" fill="#FFFFFF" style="stroke:#000000;stroke-width:1;"/><text fill="#000000" font-family="Verdana" font-size="13" lengthAdjust="spacing" textLength="202.249" x="310" y="178.6357">Contains Patient, Practitioners,</text><text fill="#000000" font-family="Verdana" font-size="13" lengthAdjust="spacing" textLength="99.9185" x="310" y="194.4351">RelatedPersons</text><g class="message" data-participant-1="Bridge" data-participant-2="Backend"><polygon fill="#000000" points="1048.3545,227.9639,1058.3545,231.9639,1048.3545,235.9639,1052.3545,231.9639" style="stroke:#000000;stroke-width:1;"/><line style="stroke:#000000;stroke-width:1;" x1="299.7183" x2="1054.3545" y1="231.9639" y2="231.9639"/><text fill="#000000" font-family="Verdana" font-size="13" lengthAdjust="spacing" textLength="144.0029" x="306.7183" y="227.2344">Lookup user identities</text></g><path d="M1065,212.1646 L1065,237.1646 L1239,237.1646 L1239,222.1646 L1229,212.1646 L1065,212.1646" fill="#FFFFFF" style="stroke:#000000;stroke-width:1;"/><path d="M1229,212.1646 L1229,222.1646 L1239,222.1646 L1229,212.1646" fill="#FFFFFF" style="stroke:#000000;stroke-width:1;"/><text fill="#000000" font-family="Verdana" font-size="13" lengthAdjust="spacing" textLength="153.2007" x="1071" y="230.2344">UZI, URA, email lookup</text><g class="message" data-participant-1="Backend" data-participant-2="IdentityBridge"><polygon fill="#000000" points="893.0239,260.7632,883.0239,264.7632,893.0239,268.7632,889.0239,264.7632" style="stroke:#000000;stroke-width:1;"/><line style="stroke:#000000;stroke-width:1;" x1="887.0239" x2="1059.3545" y1="264.7632" y2="264.7632"/><text fill="#000000" font-family="Verdana" font-size="13" lengthAdjust="spacing" textLength="130.8506" x="899.0239" y="260.0337">User search request</text></g><g class="message" data-participant-1="IdentityBridge" data-participant-2="Backend"><polygon fill="#000000" points="1048.3545,290.5625,1058.3545,294.5625,1048.3545,298.5625,1052.3545,294.5625" style="stroke:#000000;stroke-width:1;"/><line style="stroke:#000000;stroke-width:1;" x1="882.0239" x2="1054.3545" y1="294.5625" y2="294.5625"/><text fill="#000000" font-family="Verdana" font-size="13" lengthAdjust="spacing" textLength="62.9878" x="889.0239" y="289.833">User data</text></g><g class="message" data-participant-1="Backend" data-participant-2="Bridge"><polygon fill="#000000" points="310.7183,320.3618,300.7183,324.3618,310.7183,328.3618,306.7183,324.3618" style="stroke:#000000;stroke-width:1;"/><line style="stroke:#000000;stroke-width:1;" x1="304.7183" x2="1059.3545" y1="324.3618" y2="324.3618"/><text fill="#000000" font-family="Verdana" font-size="13" lengthAdjust="spacing" textLength="180.9907" x="316.7183" y="319.6323">User identities + Matrix IDs</text></g><g class="message" data-participant-1="Bridge" data-participant-2="Synapse"><polygon fill="#000000" points="516.1338,361.0608,526.1338,365.0608,516.1338,369.0608,520.1338,365.0608" style="stroke:#000000;stroke-width:1;"/><line style="stroke:#000000;stroke-width:1;" x1="299.7183" x2="522.1338" y1="365.0608" y2="365.0608"/><text fill="#000000" font-family="Verdana" font-size="13" lengthAdjust="spacing" textLength="132.1899" x="306.7183" y="360.3313">Create Matrix Space</text></g><path d="M543,337.3618 L543,378.3618 L694,378.3618 L694,347.3618 L684,337.3618 L543,337.3618" fill="#FFFFFF" style="stroke:#000000;stroke-width:1;"/><path d="M684,337.3618 L684,347.3618 L694,347.3618 L684,337.3618" fill="#FFFFFF" style="stroke:#000000;stroke-width:1;"/><text fill="#000000" font-family="Verdana" font-size="13" lengthAdjust="spacing" textLength="130.0444" x="549" y="355.4316">Space = Care Team</text><text fill="#000000" font-family="Verdana" font-size="13" lengthAdjust="spacing" textLength="120.707" x="549" y="371.231">for specific patient</text><g class="message" data-participant-1="Synapse" data-participant-2="Synapse"><line style="stroke:#000000;stroke-width:1;" x1="538.1338" x2="580.1338" y1="405.7598" y2="405.7598"/><line style="stroke:#000000;stroke-width:1;" x1="580.1338" x2="580.1338" y1="405.7598" y2="418.7598"/><line style="stroke:#000000;stroke-width:1;" x1="539.1338" x2="580.1338" y1="418.7598" y2="418.7598"/><polygon fill="#000000" points="549.1338,414.7598,539.1338,418.7598,549.1338,422.7598,545.1338,418.7598" style="stroke:#000000;stroke-width:1;"/><text fill="#000000" font-family="Verdana" font-size="13" lengthAdjust="spacing" textLength="123.957" x="545.1338" y="401.0303">Generate Space ID</text></g><g class="message" data-participant-1="Synapse" data-participant-2="Bridge"><polygon fill="#000000" points="310.7183,444.5591,300.7183,448.5591,310.7183,452.5591,306.7183,448.5591" style="stroke:#000000;stroke-width:1;"/><line style="stroke:#000000;stroke-width:1;" x1="304.7183" x2="532.1338" y1="448.5591" y2="448.5591"/><text fill="#000000" font-family="Verdana" font-size="13" lengthAdjust="spacing" textLength="92.7202" x="316.7183" y="443.8296">Space created</text></g><rect fill="#FFFFFF" height="3" style="stroke:#FFFFFF;stroke-width:1;" width="1447.8955" x="5" y="477.4587"/><line style="stroke:#000000;stroke-width:0.5;" x1="5" x2="1452.8955" y1="477.4587" y2="477.4587"/><line style="stroke:#000000;stroke-width:0.5;" x1="5" x2="1452.8955" y1="480.4587" y2="480.4587"/><rect fill="#FFFFFF" height="23.7993" style="stroke:#000000;stroke-width:1;" width="181.502" x="638.1968" y="466.5591"/><text fill="#000000" font-family="Verdana" font-size="13" font-weight="bold" lengthAdjust="spacing" textLength="163.0586" x="644.1968" y="483.6289">User Identity Mapping</text><path d="M218.0479,507.3584 L294.4307,507.3584 L294.4307,515.1577 L284.4307,525.1577 L218.0479,525.1577 L218.0479,507.3584" fill="#FFFFFF" style="stroke:#000000;stroke-width:1;"/><rect fill="none" height="85.1973" style="stroke:#000000;stroke-width:1;" width="576.1338" x="218.0479" y="507.3584"/><text fill="#000000" font-family="Verdana" font-size="13" font-weight="bold" lengthAdjust="spacing" textLength="31.3828" x="233.0479" y="521.4282">loop</text><text fill="#000000" font-family="Verdana" font-size="11" font-weight="bold" lengthAdjust="spacing" textLength="154.7197" x="309.4307" y="520.4175">[For each team member]</text><g class="message" data-participant-1="Bridge" data-participant-2="Synapse"><polygon fill="#000000" points="521.1338,561.7563,531.1338,565.7563,521.1338,569.7563,525.1338,565.7563" style="stroke:#000000;stroke-width:1;"/><line style="stroke:#000000;stroke-width:1;" x1="299.7183" x2="527.1338" y1="565.7563" y2="565.7563"/><text fill="#000000" font-family="Verdana" font-size="13" lengthAdjust="spacing" textLength="197.3042" x="306.7183" y="561.0269">Add user mapping state event</text></g><path d="M538,530.1577 L538,587.1577 L779,587.1577 L779,540.1577 L769,530.1577 L538,530.1577" fill="#FFFFFF" style="stroke:#000000;stroke-width:1;"/><path d="M769,530.1577 L769,540.1577 L779,540.1577 L769,530.1577" fill="#FFFFFF" style="stroke:#000000;stroke-width:1;"/><text fill="#000000" font-family="Verdana" font-size="13" lengthAdjust="spacing" textLength="152.0327" x="544" y="548.2275">custom.user_mappings</text><text fill="#000000" font-family="Verdana" font-size="13" lengthAdjust="spacing" textLength="166.4736" x="544" y="564.0269">State key: Matrix user ID</text><text fill="#000000" font-family="Verdana" font-size="13" lengthAdjust="spacing" textLength="220.0479" x="544" y="579.8262">Content: FHIR ref, UZI, URA, role</text><rect fill="#FFFFFF" height="3" style="stroke:#FFFFFF;stroke-width:1;" width="1447.8955" x="5" y="620.4553"/><line style="stroke:#000000;stroke-width:0.5;" x1="5" x2="1452.8955" y1="620.4553" y2="620.4553"/><line style="stroke:#000000;stroke-width:0.5;" x1="5" x2="1452.8955" y1="623.4553" y2="623.4553"/><rect fill="#FFFFFF" height="23.7993" style="stroke:#000000;stroke-width:1;" width="197.936" x="629.9797" y="609.5557"/><text fill="#000000" font-family="Verdana" font-size="13" font-weight="bold" lengthAdjust="spacing" textLength="179.4927" x="635.9797" y="626.6255">Power Level Assignment</text><g class="message" data-participant-1="Bridge" data-participant-2="Synapse"><polygon fill="#000000" points="521.1338,687.8533,531.1338,691.8533,521.1338,695.8533,525.1338,691.8533" style="stroke:#000000;stroke-width:1;"/><line style="stroke:#000000;stroke-width:1;" x1="299.7183" x2="527.1338" y1="691.8533" y2="691.8533"/><text fill="#000000" font-family="Verdana" font-size="13" lengthAdjust="spacing" textLength="107.9038" x="306.7183" y="687.1238">Set power levels</text></g><path d="M538,648.355 L538,721.355 L700,721.355 L700,658.355 L690,648.355 L538,648.355" fill="#FFFFFF" style="stroke:#000000;stroke-width:1;"/><path d="M690,648.355 L690,658.355 L700,658.355 L690,648.355" fill="#FFFFFF" style="stroke:#000000;stroke-width:1;"/><text fill="#000000" font-family="Verdana" font-size="13" lengthAdjust="spacing" textLength="141.6797" x="544" y="666.4248">100: Care Team Lead</text><text fill="#000000" font-family="Verdana" font-size="13" lengthAdjust="spacing" textLength="108.5322" x="544" y="682.2241">75: Practitioners</text><text fill="#000000" font-family="Verdana" font-size="13" lengthAdjust="spacing" textLength="131.4917" x="544" y="698.0234">50: Related Persons</text><text fill="#000000" font-family="Verdana" font-size="13" lengthAdjust="spacing" textLength="79.2061" x="544" y="713.8228">25: Patients</text><rect fill="#FFFFFF" height="3" style="stroke:#FFFFFF;stroke-width:1;" width="1447.8955" x="5" y="747.4519"/><line style="stroke:#000000;stroke-width:0.5;" x1="5" x2="1452.8955" y1="747.4519" y2="747.4519"/><line style="stroke:#000000;stroke-width:0.5;" x1="5" x2="1452.8955" y1="750.4519" y2="750.4519"/><rect fill="#FFFFFF" height="23.7993" style="stroke:#000000;stroke-width:1;" width="212.8911" x="622.5022" y="736.5522"/><text fill="#000000" font-family="Verdana" font-size="13" font-weight="bold" lengthAdjust="spacing" textLength="194.4478" x="628.5022" y="753.6221">Space-Room Relationships</text><g class="message" data-participant-1="Bridge" data-participant-2="Synapse"><polygon fill="#000000" points="521.1338,788.1509,531.1338,792.1509,521.1338,796.1509,525.1338,792.1509" style="stroke:#000000;stroke-width:1;"/><line style="stroke:#000000;stroke-width:1;" x1="299.7183" x2="527.1338" y1="792.1509" y2="792.1509"/><text fill="#000000" font-family="Verdana" font-size="13" lengthAdjust="spacing" textLength="209.4155" x="306.7183" y="787.4214">Create initial conversation room</text></g><g class="message" data-participant-1="Synapse" data-participant-2="Bridge"><polygon fill="#000000" points="310.7183,817.9502,300.7183,821.9502,310.7183,825.9502,306.7183,821.9502" style="stroke:#000000;stroke-width:1;"/><line style="stroke:#000000;stroke-width:1;" x1="304.7183" x2="532.1338" y1="821.9502" y2="821.9502"/><text fill="#000000" font-family="Verdana" font-size="13" lengthAdjust="spacing" textLength="90.873" x="316.7183" y="817.2207">Room created</text></g><g class="message" data-participant-1="Bridge" data-participant-2="Synapse"><polygon fill="#000000" points="521.1338,858.6492,531.1338,862.6492,521.1338,866.6492,525.1338,862.6492" style="stroke:#000000;stroke-width:1;"/><line style="stroke:#000000;stroke-width:1;" x1="299.7183" x2="527.1338" y1="862.6492" y2="862.6492"/><text fill="#000000" font-family="Verdana" font-size="13" lengthAdjust="spacing" textLength="124.6172" x="306.7183" y="857.9197">Link room to space</text></g><path d="M538,834.9502 L538,875.9502 L770,875.9502 L770,844.9502 L760,834.9502 L538,834.9502" fill="#FFFFFF" style="stroke:#000000;stroke-width:1;"/><path d="M760,834.9502 L760,844.9502 L770,844.9502 L760,834.9502" fill="#FFFFFF" style="stroke:#000000;stroke-width:1;"/><text fill="#000000" font-family="Verdana" font-size="13" lengthAdjust="spacing" textLength="211.5356" x="544" y="853.02">m.space.parent (room &#8594; space)</text><text fill="#000000" font-family="Verdana" font-size="13" lengthAdjust="spacing" textLength="199.2212" x="544" y="868.8193">m.space.child (space &#8594; room)</text><rect fill="#FFFFFF" height="3" style="stroke:#FFFFFF;stroke-width:1;" width="1447.8955" x="5" y="902.4485"/><line style="stroke:#000000;stroke-width:0.5;" x1="5" x2="1452.8955" y1="902.4485" y2="902.4485"/><line style="stroke:#000000;stroke-width:0.5;" x1="5" x2="1452.8955" y1="905.4485" y2="905.4485"/><rect fill="#FFFFFF" height="23.7993" style="stroke:#000000;stroke-width:1;" width="243.4487" x="607.2234" y="891.5488"/><text fill="#000000" font-family="Verdana" font-size="13" font-weight="bold" lengthAdjust="spacing" textLength="225.0054" x="613.2234" y="908.6187">Cross-Organization Invitations</text><path d="M218.0479,932.3481 L282.0972,932.3481 L282.0972,940.1475 L272.0972,950.1475 L218.0479,950.1475 L218.0479,932.3481" fill="#FFFFFF" style="stroke:#000000;stroke-width:1;"/><rect fill="none" height="315.5918" style="stroke:#000000;stroke-width:1;" width="1224.8477" x="218.0479" y="932.3481"/><text fill="#000000" font-family="Verdana" font-size="13" font-weight="bold" lengthAdjust="spacing" textLength="19.0493" x="233.0479" y="946.418">alt</text><text fill="#000000" font-family="Verdana" font-size="11" font-weight="bold" lengthAdjust="spacing" textLength="188.8906" x="297.0972" y="945.4072">[External practitioner needed]</text><g class="message" data-participant-1="Bridge" data-participant-2="Identity"><polygon fill="#000000" points="698.3696,967.9468,708.3696,971.9468,698.3696,975.9468,702.3696,971.9468" style="stroke:#000000;stroke-width:1;"/><line style="stroke:#000000;stroke-width:1;" x1="299.7183" x2="704.3696" y1="971.9468" y2="971.9468"/><text fill="#000000" font-family="Verdana" font-size="13" lengthAdjust="spacing" textLength="137.9219" x="306.7183" y="967.2173">Lookup external user</text></g><g class="message" data-participant-1="Identity" data-participant-2="IdentityBridge"><polygon fill="#000000" points="870.0239,997.7461,880.0239,1001.7461,870.0239,1005.7461,874.0239,1001.7461" style="stroke:#000000;stroke-width:1;"/><line style="stroke:#000000;stroke-width:1;" x1="710.3696" x2="876.0239" y1="1001.7461" y2="1001.7461"/><text fill="#000000" font-family="Verdana" font-size="13" lengthAdjust="spacing" textLength="100.9404" x="717.3696" y="997.0166">Forward lookup</text></g><g class="message" data-participant-1="IdentityBridge" data-participant-2="Backend"><polygon fill="#000000" points="1048.3545,1027.5454,1058.3545,1031.5454,1048.3545,1035.5454,1052.3545,1031.5454" style="stroke:#000000;stroke-width:1;"/><line style="stroke:#000000;stroke-width:1;" x1="882.0239" x2="1054.3545" y1="1031.5454" y2="1031.5454"/><text fill="#000000" font-family="Verdana" font-size="13" lengthAdjust="spacing" textLength="154.3306" x="889.0239" y="1026.8159">Search external system</text></g><g class="message" data-participant-1="Backend" data-participant-2="IdentityBridge"><polygon fill="#000000" points="893.0239,1057.3447,883.0239,1061.3447,893.0239,1065.3447,889.0239,1061.3447" style="stroke:#000000;stroke-width:1;"/><line style="stroke:#000000;stroke-width:1;" x1="887.0239" x2="1059.3545" y1="1061.3447" y2="1061.3447"/><text fill="#000000" font-family="Verdana" font-size="13" lengthAdjust="spacing" textLength="128.375" x="899.0239" y="1056.6152">External user found</text></g><g class="message" data-participant-1="IdentityBridge" data-participant-2="Identity"><polygon fill="#000000" points="721.3696,1087.144,711.3696,1091.144,721.3696,1095.144,717.3696,1091.144" style="stroke:#000000;stroke-width:1;"/><line style="stroke:#000000;stroke-width:1;" x1="715.3696" x2="881.0239" y1="1091.144" y2="1091.144"/><text fill="#000000" font-family="Verdana" font-size="13" lengthAdjust="spacing" textLength="94.9038" x="727.3696" y="1086.4146">User Matrix ID</text></g><g class="message" data-participant-1="Identity" data-participant-2="Bridge"><polygon fill="#000000" points="310.7183,1116.9434,300.7183,1120.9434,310.7183,1124.9434,306.7183,1120.9434" style="stroke:#000000;stroke-width:1;"/><line style="stroke:#000000;stroke-width:1;" x1="304.7183" x2="709.3696" y1="1120.9434" y2="1120.9434"/><text fill="#000000" font-family="Verdana" font-size="13" lengthAdjust="spacing" textLength="140.5054" x="316.7183" y="1116.2139">External user identity</text></g><g class="message" data-participant-1="Bridge" data-participant-2="Synapse"><polygon fill="#000000" points="521.1338,1165.542,531.1338,1169.542,521.1338,1173.542,525.1338,1169.542" style="stroke:#000000;stroke-width:1;"/><line style="stroke:#000000;stroke-width:1;" x1="299.7183" x2="527.1338" y1="1169.542" y2="1169.542"/><text fill="#000000" font-family="Verdana" font-size="13" lengthAdjust="spacing" textLength="128.7114" x="306.7183" y="1164.8125">Invite external user</text></g><path d="M538,1133.9434 L538,1190.9434 L717,1190.9434 L717,1143.9434 L707,1133.9434 L538,1133.9434" fill="#FFFFFF" style="stroke:#000000;stroke-width:1;"/><path d="M707,1133.9434 L707,1143.9434 L717,1143.9434 L707,1133.9434" fill="#FFFFFF" style="stroke:#000000;stroke-width:1;"/><text fill="#000000" font-family="Verdana" font-size="13" lengthAdjust="spacing" textLength="157.4155" x="544" y="1152.0132">Include patient context:</text><text fill="#000000" font-family="Verdana" font-size="13" lengthAdjust="spacing" textLength="158.4121" x="544" y="1167.8125">nl-ta-chat.invite.context</text><text fill="#000000" font-family="Verdana" font-size="13" lengthAdjust="spacing" textLength="138.3726" x="544" y="1183.6118">with Patient resource</text><g class="message" data-participant-1="Synapse" data-participant-2="External Homeserver"><polygon fill="#000000" points="1242.5537,1225.0403,1252.5537,1229.0403,1242.5537,1233.0403,1246.5537,1229.0403" style="stroke:#000000;stroke-width:1;"/><line style="stroke:#000000;stroke-width:1;" x1="533.1338" x2="1248.5537" y1="1229.0403" y2="1229.0403"/><text fill="#000000" font-family="Verdana" font-size="13" lengthAdjust="spacing" textLength="109.7129" x="540.1338" y="1224.3108">Federation invite</text></g><path d="M1259,1201.3413 L1259,1242.3413 L1427,1242.3413 L1427,1211.3413 L1417,1201.3413 L1259,1201.3413" fill="#FFFFFF" style="stroke:#000000;stroke-width:1;"/><path d="M1417,1201.3413 L1417,1211.3413 L1427,1211.3413 L1417,1201.3413" fill="#FFFFFF" style="stroke:#000000;stroke-width:1;"/><text fill="#000000" font-family="Verdana" font-size="13" lengthAdjust="spacing" textLength="147.3418" x="1265" y="1219.4111">Patient context shared</text><text fill="#000000" font-family="Verdana" font-size="13" lengthAdjust="spacing" textLength="135.6304" x="1265" y="1235.2104">for care coordination</text><rect fill="#FFFFFF" height="3" style="stroke:#FFFFFF;stroke-width:1;" width="1447.8955" x="5" y="1275.8396"/><line style="stroke:#000000;stroke-width:0.5;" x1="5" x2="1452.8955" y1="1275.8396" y2="1275.8396"/><line style="stroke:#000000;stroke-width:0.5;" x1="5" x2="1452.8955" y1="1278.8396" y2="1278.8396"/><rect fill="#FFFFFF" height="23.7993" style="stroke:#000000;stroke-width:1;" width="169.1621" x="644.3667" y="1264.9399"/><text fill="#000000" font-family="Verdana" font-size="13" font-weight="bold" lengthAdjust="spacing" textLength="150.7188" x="650.3667" y="1282.0098">Network Established</text><g class="message" data-participant-1="Bridge" data-participant-2="Platform"><polygon fill="#000000" points="107.8223,1335.3379,97.8223,1339.3379,107.8223,1343.3379,103.8223,1339.3379" style="stroke:#000000;stroke-width:1;"/><line style="stroke:#000000;stroke-width:1;" x1="101.8223" x2="298.7183" y1="1339.3379" y2="1339.3379"/><text fill="#000000" font-family="Verdana" font-size="13" lengthAdjust="spacing" textLength="166.9624" x="113.8223" y="1334.6084">Care team network ready</text></g><path d="M304,1303.7393 L304,1360.7393 L475,1360.7393 L475,1313.7393 L465,1303.7393 L304,1303.7393" fill="#FFFFFF" style="stroke:#000000;stroke-width:1;"/><path d="M465,1303.7393 L465,1313.7393 L475,1313.7393 L465,1303.7393" fill="#FFFFFF" style="stroke:#000000;stroke-width:1;"/><text fill="#000000" font-family="Verdana" font-size="13" lengthAdjust="spacing" textLength="135.8716" x="310" y="1321.8091">Matrix space created</text><text fill="#000000" font-family="Verdana" font-size="13" lengthAdjust="spacing" textLength="130.3809" x="310" y="1337.6084">All members invited</text><text fill="#000000" font-family="Verdana" font-size="13" lengthAdjust="spacing" textLength="150.6616" x="310" y="1353.4077">Permissions configured</text><!--SRC=[TLRRRkCs47tNLqppbA2sirjWKS102YHnqXZDResu-r88ABZYs29CaIf9nUj-G3zWFt6_fCER8ZLANcpHPmxFp9mPvGTNOuFGIYPKuOIJ20_8fAihPX1kTTDqIbJC2QtW4xgZDWUuDHWFxgK-5aNBZ1ELQ9boS3O8taZcTjeqPy1i_p16vrEuCOBlCI3Zrp7k8tD6V8NjIR7MHbZwFiOrxBtbiEQeA9KJRD4yemdmV3Q57roUOLCYRbXrGCNfPkkmATNvRtYgf6Q7o-PskxfStLn4_H5M55TNSElhy0UovgLcLrT5qQSz_oLTlWpGWAmy4lbbrtB_MIZj48pOruv0MZbg59MJo4Zf33Q6LIIOcD7OMQcUKFge3JrfPOiYqeUBegubF6fzw5heB1eGCL-1TdJFvp_NC_ZyT3q3R9YG84C8iQKI4DsuKXJYwImoKzLWyEyEhIl6c9680AS4sP1pnFKY3Nw4P83rQfHIyi0oLXSpQjko2aVvX1COzADKL7-mBLPY9ofeOpcBmXVpsLDbUwNFqMs_8XKxW0BjUZL4vHpYRwcP1STNpDuV8T7UhXzPsmgr3nQXYhTmJnefi0RdZT5WymLD0VGtKO9hpcDBcyHYdRyDdtrUFcPOZwgpJZSBZ_yhuMsfjY7YWATbhcGWNAzAvOr7H4kuVrW_KNztiu57Z9POPCjlz95Y7kbU2TVMYhrgA33aDA5wYmxQ425znDY5xz-zMmv6w14PBzNF7vPZqvVg0y6Ixo4PlrG_ULnigmt2GaFcJret4KpHjXQjVKjQyfHGT16JK6b5kyJ68JR4CjNqm9vxFaNwADGXH8FJPB__-xHPXBC5xHrVjFE0_FxljmYzA5K6LBMG7Cx3Gm1uv4NSEKPRE__Tx9aI_qIvQ_KiNCmuP4ih6kw-EZIA4ci7nGI5o4dws6FPeFtgm1ph_H70lOSdDWEv-CWCpqja29zO3DkuGlehRDYsKT7Rs-Tkg0XskbFyZOjUaWd3ro-MLsbCKuly7l7mjsOnr1idoZJizLfLikEOTuytcAE8PQcKd3ishshc5Y8mBT9lfJeALsTRqnXQtHcoKAzbOCcpNlU3Rj36Do4rW_fheYiYzojTcx4Ui3MPaSU56TxhbTQ62nL8-h7F_nlSqThv8eMjQHR7WvLVUccamqfJAOecXfz6av3wOeTRj5JNKgOrQ9DyEgIHRmHj6kzk4hqJ-uu45_y1]--></g></svg>