<svg xmlns="http://www.w3.org/2000/svg" xmlns:xlink="http://www.w3.org/1999/xlink" contentStyleType="text/css" data-diagram-type="SEQUENCE" height="1396px" preserveAspectRatio="none" style="width:1456px;height:1396px;background:#FFFFFF;" version="1.1" viewBox="0 0 1456 1396" width="1456px" zoomAndPan="magnify"><title>Healthcare Communication Network Creation Flow</title><defs/><g><text fill="#000000" font-family="Verdana" font-size="22" font-weight="bold" lengthAdjust="spacing" textLength="627.2578" x="412.9561" y="35.4209">Healthcare Communication Network Creation Flow</text><g><title>Matrix Synapse</title><rect fill="#FFFFFF" height="81.832" style="stroke:#000000;stroke-width:1;" width="10" x="529.0669" y="356.832"/></g><rect fill="#FFFFFF" height="82.5313" style="stroke:#000000;stroke-width:1;" width="568.0322" x="218.8179" y="496.7969"/><rect fill="#FFFFFF" height="307.5938" style="stroke:#000000;stroke-width:1;" width="1220.3521" x="218.8179" y="911.7891"/><g><title>Healthcare Platform</title><rect fill="#000000" fill-opacity="0.00000" height="1245.7109" width="8" x="93.1777" y="99.2031"/><line style="stroke:#000000;stroke-width:1;" x1="97" x2="97" y1="99.2031" y2="1344.9141"/></g><g><title>Platform Bridge</title><rect fill="#000000" fill-opacity="0.00000" height="1245.7109" width="8" x="296.5054" y="99.2031"/><line style="stroke:#000000;stroke-width:1;" x1="299.8179" x2="299.8179" y1="99.2031" y2="1344.9141"/></g><g><title>Matrix Synapse</title><rect fill="#000000" fill-opacity="0.00000" height="1245.7109" width="8" x="530.0669" y="99.2031"/><line style="stroke:#000000;stroke-width:1;" x1="533.0938" x2="533.0938" y1="99.2031" y2="1344.9141"/></g><g><title>ma1sd Identity Server</title><rect fill="#000000" fill-opacity="0.00000" height="1245.7109" width="8" x="705.9253" y="99.2031"/><line style="stroke:#000000;stroke-width:1;" x1="709.04" x2="709.04" y1="99.2031" y2="1344.9141"/></g><g><title>ma1sd Bridge</title><rect fill="#000000" fill-opacity="0.00000" height="1245.7109" width="8" x="876.5063" y="99.2031"/><line style="stroke:#000000;stroke-width:1;" x1="879.8105" x2="879.8105" y1="99.2031" y2="1344.9141"/></g><g><title>Backend System</title><rect fill="#000000" fill-opacity="0.00000" height="1245.7109" width="8" x="1054.6655" y="99.2031"/><line style="stroke:#000000;stroke-width:1;" x1="1058.2954" x2="1058.2954" y1="99.2031" y2="1344.9141"/></g><g><title>External Homeserver</title><rect fill="#000000" fill-opacity="0.00000" height="1245.7109" width="8" x="1246.2568" y="99.2031"/><line style="stroke:#000000;stroke-width:1;" x1="1250.0356" x2="1250.0356" y1="99.2031" y2="1344.9141"/></g><g class="participant participant-head" data-participant="Platform"><rect fill="#FFFFFF" height="30.2969" rx="2.5" ry="2.5" style="stroke:#000000;stroke-width:1;" width="154.3555" x="20" y="67.9063"/><text fill="#000000" font-family="Verdana" font-size="14" lengthAdjust="spacing" textLength="140.3555" x="27" y="87.9014">Healthcare Platform</text></g><g class="participant participant-tail" data-participant="Platform"><rect fill="#FFFFFF" height="30.2969" rx="2.5" ry="2.5" style="stroke:#000000;stroke-width:1;" width="154.3555" x="20" y="1343.9141"/><text fill="#000000" font-family="Verdana" font-size="14" lengthAdjust="spacing" textLength="140.3555" x="27" y="1363.9092">Healthcare Platform</text></g><g class="participant participant-head" data-participant="Bridge"><rect fill="#FFFFFF" height="30.2969" rx="2.5" ry="2.5" style="stroke:#000000;stroke-width:1;" width="123.375" x="238.8179" y="67.9063"/><text fill="#000000" font-family="Verdana" font-size="14" lengthAdjust="spacing" textLength="109.375" x="245.8179" y="87.9014">Platform Bridge</text></g><g class="participant participant-tail" data-participant="Bridge"><rect fill="#FFFFFF" height="30.2969" rx="2.5" ry="2.5" style="stroke:#000000;stroke-width:1;" width="123.375" x="238.8179" y="1343.9141"/><text fill="#000000" font-family="Verdana" font-size="14" lengthAdjust="spacing" textLength="109.375" x="245.8179" y="1363.9092">Platform Bridge</text></g><g class="participant participant-head" data-participant="Synapse"><rect fill="#FFFFFF" height="30.2969" rx="2.5" ry="2.5" style="stroke:#000000;stroke-width:1;" width="121.9463" x="473.0938" y="67.9063"/><text fill="#000000" font-family="Verdana" font-size="14" lengthAdjust="spacing" textLength="107.9463" x="480.0938" y="87.9014">Matrix Synapse</text></g><g class="participant participant-tail" data-participant="Synapse"><rect fill="#FFFFFF" height="30.2969" rx="2.5" ry="2.5" style="stroke:#000000;stroke-width:1;" width="121.9463" x="473.0938" y="1343.9141"/><text fill="#000000" font-family="Verdana" font-size="14" lengthAdjust="spacing" textLength="107.9463" x="480.0938" y="1363.9092">Matrix Synapse</text></g><g class="participant participant-head" data-participant="Identity"><rect fill="#FFFFFF" height="30.2969" rx="2.5" ry="2.5" style="stroke:#000000;stroke-width:1;" width="169.7705" x="625.04" y="67.9063"/><text fill="#000000" font-family="Verdana" font-size="14" lengthAdjust="spacing" textLength="155.7705" x="632.04" y="87.9014">ma1sd Identity Server</text></g><g class="participant participant-tail" data-participant="Identity"><rect fill="#FFFFFF" height="30.2969" rx="2.5" ry="2.5" style="stroke:#000000;stroke-width:1;" width="169.7705" x="625.04" y="1343.9141"/><text fill="#000000" font-family="Verdana" font-size="14" lengthAdjust="spacing" textLength="155.7705" x="632.04" y="1363.9092">ma1sd Identity Server</text></g><g class="participant participant-head" data-participant="IdentityBridge"><rect fill="#FFFFFF" height="30.2969" rx="2.5" ry="2.5" style="stroke:#000000;stroke-width:1;" width="111.3916" x="824.8105" y="67.9063"/><text fill="#000000" font-family="Verdana" font-size="14" lengthAdjust="spacing" textLength="97.3916" x="831.8105" y="87.9014">ma1sd Bridge</text></g><g class="participant participant-tail" data-participant="IdentityBridge"><rect fill="#FFFFFF" height="30.2969" rx="2.5" ry="2.5" style="stroke:#000000;stroke-width:1;" width="111.3916" x="824.8105" y="1343.9141"/><text fill="#000000" font-family="Verdana" font-size="14" lengthAdjust="spacing" textLength="97.3916" x="831.8105" y="1363.9092">ma1sd Bridge</text></g><g class="participant participant-head" data-participant="Backend"><rect fill="#FFFFFF" height="46.5938" rx="2.5" ry="2.5" style="stroke:#000000;stroke-width:1;" width="160.7402" x="978.2954" y="51.6094"/><text fill="#000000" font-family="Verdana" font-size="14" lengthAdjust="spacing" textLength="117.0176" x="1000.1567" y="71.6045">Backend System</text><text fill="#000000" font-family="Verdana" font-size="14" lengthAdjust="spacing" textLength="146.7402" x="985.2954" y="87.9014">(Keycloak/mCSD/DB)</text></g><g class="participant participant-tail" data-participant="Backend"><rect fill="#FFFFFF" height="46.5938" rx="2.5" ry="2.5" style="stroke:#000000;stroke-width:1;" width="160.7402" x="978.2954" y="1343.9141"/><text fill="#000000" font-family="Verdana" font-size="14" lengthAdjust="spacing" textLength="117.0176" x="1000.1567" y="1363.9092">Backend System</text><text fill="#000000" font-family="Verdana" font-size="14" lengthAdjust="spacing" textLength="146.7402" x="985.2954" y="1380.2061">(Keycloak/mCSD/DB)</text></g><g class="participant participant-head" data-participant="External Homeserver"><rect fill="#FFFFFF" height="30.2969" rx="2.5" ry="2.5" style="stroke:#000000;stroke-width:1;" width="162.4424" x="1169.0356" y="67.9063"/><text fill="#000000" font-family="Verdana" font-size="14" lengthAdjust="spacing" textLength="148.4424" x="1176.0356" y="87.9014">External Homeserver</text></g><g class="participant participant-tail" data-participant="External Homeserver"><rect fill="#FFFFFF" height="30.2969" rx="2.5" ry="2.5" style="stroke:#000000;stroke-width:1;" width="162.4424" x="1169.0356" y="1343.9141"/><text fill="#000000" font-family="Verdana" font-size="14" lengthAdjust="spacing" textLength="148.4424" x="1176.0356" y="1363.9092">External Homeserver</text></g><g><title>Matrix Synapse</title><rect fill="#FFFFFF" height="81.832" style="stroke:#000000;stroke-width:1;" width="10" x="529.0669" y="356.832"/></g><rect fill="#FFFFFF" height="3" style="stroke:#FFFFFF;stroke-width:1;" width="1444.1699" x="5" y="129.7695"/><line style="stroke:#000000;stroke-width:0.5;" x1="5" x2="1449.1699" y1="129.7695" y2="129.7695"/><line style="stroke:#000000;stroke-width:0.5;" x1="5" x2="1449.1699" y1="132.7695" y2="132.7695"/><rect fill="#FFFFFF" height="23.1328" style="stroke:#000000;stroke-width:1;" width="163.519" x="645.3254" y="119.2031"/><text fill="#000000" font-family="Verdana" font-size="13" font-weight="bold" lengthAdjust="spacing" textLength="144.9932" x="651.3254" y="135.27">Care Team Creation</text><g class="message" data-participant-1="Platform" data-participant-2="Bridge"><polygon fill="#000000" points="288.5054,180.0352,298.5054,184.0352,288.5054,188.0352,292.5054,184.0352" style="stroke:#000000;stroke-width:1;"/><line style="stroke:#000000;stroke-width:1;" x1="97.1777" x2="294.5054" y1="184.0352" y2="184.0352"/><text fill="#000000" font-family="Verdana" font-size="13" lengthAdjust="spacing" textLength="179.3276" x="104.1777" y="178.9692">CareTeam created/updated</text></g><path d="M305,157.3359 L305,197.3359 L527,197.3359 L527,167.3359 L517,157.3359 L305,157.3359" fill="#FFFFFF" style="stroke:#000000;stroke-width:1;"/><path d="M517,157.3359 L517,167.3359 L527,167.3359 L517,157.3359" fill="#FFFFFF" style="stroke:#000000;stroke-width:1;"/><text fill="#000000" font-family="Verdana" font-size="13" lengthAdjust="spacing" textLength="201.3604" x="311" y="174.4028">Contains Patient, Practitioners,</text><text fill="#000000" font-family="Verdana" font-size="13" lengthAdjust="spacing" textLength="100.877" x="311" y="189.5356">RelatedPersons</text><g class="message" data-participant-1="Bridge" data-participant-2="Backend"><polygon fill="#000000" points="1046.6655,222.7344,1056.6655,226.7344,1046.6655,230.7344,1050.6655,226.7344" style="stroke:#000000;stroke-width:1;"/><line style="stroke:#000000;stroke-width:1;" x1="300.5054" x2="1052.6655" y1="226.7344" y2="226.7344"/><text fill="#000000" font-family="Verdana" font-size="13" lengthAdjust="spacing" textLength="144.0791" x="307.5054" y="221.6685">Lookup user identities</text></g><path d="M1063,207.6016 L1063,232.6016 L1233,232.6016 L1233,217.6016 L1223,207.6016 L1063,207.6016" fill="#FFFFFF" style="stroke:#000000;stroke-width:1;"/><path d="M1223,207.6016 L1223,217.6016 L1233,217.6016 L1223,207.6016" fill="#FFFFFF" style="stroke:#000000;stroke-width:1;"/><text fill="#000000" font-family="Verdana" font-size="13" lengthAdjust="spacing" textLength="149.7476" x="1069" y="224.6685">UZI, URA, email lookup</text><g class="message" data-participant-1="Backend" data-participant-2="IdentityBridge"><polygon fill="#000000" points="891.5063,254.8672,881.5063,258.8672,891.5063,262.8672,887.5063,258.8672" style="stroke:#000000;stroke-width:1;"/><line style="stroke:#000000;stroke-width:1;" x1="885.5063" x2="1057.6655" y1="258.8672" y2="258.8672"/><text fill="#000000" font-family="Verdana" font-size="13" lengthAdjust="spacing" textLength="131.0664" x="897.5063" y="253.8013">User search request</text></g><g class="message" data-participant-1="IdentityBridge" data-participant-2="Backend"><polygon fill="#000000" points="1046.6655,284,1056.6655,288,1046.6655,292,1050.6655,288" style="stroke:#000000;stroke-width:1;"/><line style="stroke:#000000;stroke-width:1;" x1="880.5063" x2="1052.6655" y1="288" y2="288"/><text fill="#000000" font-family="Verdana" font-size="13" lengthAdjust="spacing" textLength="63.0449" x="887.5063" y="282.9341">User data</text></g><g class="message" data-participant-1="Backend" data-participant-2="Bridge"><polygon fill="#000000" points="311.5054,313.1328,301.5054,317.1328,311.5054,321.1328,307.5054,317.1328" style="stroke:#000000;stroke-width:1;"/><line style="stroke:#000000;stroke-width:1;" x1="305.5054" x2="1057.6655" y1="317.1328" y2="317.1328"/><text fill="#000000" font-family="Verdana" font-size="13" lengthAdjust="spacing" textLength="178.8896" x="317.5054" y="312.0669">User identities + Matrix IDs</text></g><g class="message" data-participant-1="Bridge" data-participant-2="Synapse"><polygon fill="#000000" points="517.0669,352.832,527.0669,356.832,517.0669,360.832,521.0669,356.832" style="stroke:#000000;stroke-width:1;"/><line style="stroke:#000000;stroke-width:1;" x1="300.5054" x2="523.0669" y1="356.832" y2="356.832"/><text fill="#000000" font-family="Verdana" font-size="13" lengthAdjust="spacing" textLength="132.2915" x="307.5054" y="351.7661">Create Matrix Space</text></g><path d="M544,330.1328 L544,370.1328 L694,370.1328 L694,340.1328 L684,330.1328 L544,330.1328" fill="#FFFFFF" style="stroke:#000000;stroke-width:1;"/><path d="M684,330.1328 L684,340.1328 L694,340.1328 L684,330.1328" fill="#FFFFFF" style="stroke:#000000;stroke-width:1;"/><text fill="#000000" font-family="Verdana" font-size="13" lengthAdjust="spacing" textLength="129.8604" x="550" y="347.1997">Space = Care Team</text><text fill="#000000" font-family="Verdana" font-size="13" lengthAdjust="spacing" textLength="121.5195" x="550" y="362.3325">for specific patient</text><g class="message" data-participant-1="Synapse" data-participant-2="Synapse"><line style="stroke:#000000;stroke-width:1;" x1="539.0669" x2="581.0669" y1="396.5313" y2="396.5313"/><line style="stroke:#000000;stroke-width:1;" x1="581.0669" x2="581.0669" y1="396.5313" y2="409.5313"/><line style="stroke:#000000;stroke-width:1;" x1="540.0669" x2="581.0669" y1="409.5313" y2="409.5313"/><polygon fill="#000000" points="550.0669,405.5313,540.0669,409.5313,550.0669,413.5313,546.0669,409.5313" style="stroke:#000000;stroke-width:1;"/><text fill="#000000" font-family="Verdana" font-size="13" lengthAdjust="spacing" textLength="122.4399" x="546.0669" y="391.4653">Generate Space ID</text></g><g class="message" data-participant-1="Synapse" data-participant-2="Bridge"><polygon fill="#000000" points="311.5054,434.6641,301.5054,438.6641,311.5054,442.6641,307.5054,438.6641" style="stroke:#000000;stroke-width:1;"/><line style="stroke:#000000;stroke-width:1;" x1="305.5054" x2="533.0669" y1="438.6641" y2="438.6641"/><text fill="#000000" font-family="Verdana" font-size="13" lengthAdjust="spacing" textLength="93.5518" x="317.5054" y="433.5981">Space created</text></g><rect fill="#FFFFFF" height="3" style="stroke:#FFFFFF;stroke-width:1;" width="1444.1699" x="5" y="467.2305"/><line style="stroke:#000000;stroke-width:0.5;" x1="5" x2="1449.1699" y1="467.2305" y2="467.2305"/><line style="stroke:#000000;stroke-width:0.5;" x1="5" x2="1449.1699" y1="470.2305" y2="470.2305"/><rect fill="#FFFFFF" height="23.1328" style="stroke:#000000;stroke-width:1;" width="182.0098" x="636.0801" y="456.6641"/><text fill="#000000" font-family="Verdana" font-size="13" font-weight="bold" lengthAdjust="spacing" textLength="163.4839" x="642.0801" y="472.731">User Identity Mapping</text><path d="M218.8179,496.7969 L295.4419,496.7969 L295.4419,503.9297 L285.4419,513.9297 L218.8179,513.9297 L218.8179,496.7969" fill="#FFFFFF" style="stroke:#000000;stroke-width:1;"/><rect fill="none" height="82.5313" style="stroke:#000000;stroke-width:1;" width="568.0322" x="218.8179" y="496.7969"/><text fill="#000000" font-family="Verdana" font-size="13" font-weight="bold" lengthAdjust="spacing" textLength="31.624" x="233.8179" y="509.8638">loop</text><text fill="#000000" font-family="Verdana" font-size="11" font-weight="bold" lengthAdjust="spacing" textLength="154.0215" x="310.4419" y="509.0073">[For each team member]</text><g class="message" data-participant-1="Bridge" data-participant-2="Synapse"><polygon fill="#000000" points="522.0669,549.1953,532.0669,553.1953,522.0669,557.1953,526.0669,553.1953" style="stroke:#000000;stroke-width:1;"/><line style="stroke:#000000;stroke-width:1;" x1="300.5054" x2="528.0669" y1="553.1953" y2="553.1953"/><text fill="#000000" font-family="Verdana" font-size="13" lengthAdjust="spacing" textLength="197.4756" x="307.5054" y="548.1294">Add user mapping state event</text></g><path d="M539,518.9297 L539,573.9297 L771,573.9297 L771,528.9297 L761,518.9297 L539,518.9297" fill="#FFFFFF" style="stroke:#000000;stroke-width:1;"/><path d="M761,518.9297 L761,528.9297 L771,528.9297 L761,518.9297" fill="#FFFFFF" style="stroke:#000000;stroke-width:1;"/><text fill="#000000" font-family="Verdana" font-size="13" lengthAdjust="spacing" textLength="150.8711" x="545" y="535.9966">custom.user_mappings</text><text fill="#000000" font-family="Verdana" font-size="13" lengthAdjust="spacing" textLength="161.6685" x="545" y="551.1294">State key: Matrix user ID</text><text fill="#000000" font-family="Verdana" font-size="13" lengthAdjust="spacing" textLength="211.7832" x="545" y="566.2622">Content: FHIR ref, UZI, URA, role</text><rect fill="#FFFFFF" height="3" style="stroke:#FFFFFF;stroke-width:1;" width="1444.1699" x="5" y="606.8945"/><line style="stroke:#000000;stroke-width:0.5;" x1="5" x2="1449.1699" y1="606.8945" y2="606.8945"/><line style="stroke:#000000;stroke-width:0.5;" x1="5" x2="1449.1699" y1="609.8945" y2="609.8945"/><rect fill="#FFFFFF" height="23.1328" style="stroke:#000000;stroke-width:1;" width="198.5073" x="627.8313" y="596.3281"/><text fill="#000000" font-family="Verdana" font-size="13" font-weight="bold" lengthAdjust="spacing" textLength="179.9814" x="633.8313" y="612.395">Power Level Assignment</text><g class="message" data-participant-1="Bridge" data-participant-2="Synapse"><polygon fill="#000000" points="522.0669,672.293,532.0669,676.293,522.0669,680.293,526.0669,676.293" style="stroke:#000000;stroke-width:1;"/><line style="stroke:#000000;stroke-width:1;" x1="300.5054" x2="528.0669" y1="676.293" y2="676.293"/><text fill="#000000" font-family="Verdana" font-size="13" lengthAdjust="spacing" textLength="107.4785" x="307.5054" y="671.2271">Set power levels</text></g><path d="M539,634.4609 L539,704.4609 L700,704.4609 L700,644.4609 L690,634.4609 L539,634.4609" fill="#FFFFFF" style="stroke:#000000;stroke-width:1;"/><path d="M690,634.4609 L690,644.4609 L700,644.4609 L690,634.4609" fill="#FFFFFF" style="stroke:#000000;stroke-width:1;"/><text fill="#000000" font-family="Verdana" font-size="13" lengthAdjust="spacing" textLength="140.0039" x="545" y="651.5278">100: Care Team Lead</text><text fill="#000000" font-family="Verdana" font-size="13" lengthAdjust="spacing" textLength="107.0786" x="545" y="666.6606">75: Practitioners</text><text fill="#000000" font-family="Verdana" font-size="13" lengthAdjust="spacing" textLength="130.0635" x="545" y="681.7935">50: Related Persons</text><text fill="#000000" font-family="Verdana" font-size="13" lengthAdjust="spacing" textLength="77.6763" x="545" y="696.9263">25: Patients</text><rect fill="#FFFFFF" height="3" style="stroke:#FFFFFF;stroke-width:1;" width="1444.1699" x="5" y="730.5586"/><line style="stroke:#000000;stroke-width:0.5;" x1="5" x2="1449.1699" y1="730.5586" y2="730.5586"/><line style="stroke:#000000;stroke-width:0.5;" x1="5" x2="1449.1699" y1="733.5586" y2="733.5586"/><rect fill="#FFFFFF" height="23.1328" style="stroke:#000000;stroke-width:1;" width="213.2339" x="620.468" y="719.9922"/><text fill="#000000" font-family="Verdana" font-size="13" font-weight="bold" lengthAdjust="spacing" textLength="194.708" x="626.468" y="736.0591">Space-Room Relationships</text><g class="message" data-participant-1="Bridge" data-participant-2="Synapse"><polygon fill="#000000" points="522.0669,770.2578,532.0669,774.2578,522.0669,778.2578,526.0669,774.2578" style="stroke:#000000;stroke-width:1;"/><line style="stroke:#000000;stroke-width:1;" x1="300.5054" x2="528.0669" y1="774.2578" y2="774.2578"/><text fill="#000000" font-family="Verdana" font-size="13" lengthAdjust="spacing" textLength="209.5615" x="307.5054" y="769.1919">Create initial conversation room</text></g><g class="message" data-participant-1="Synapse" data-participant-2="Bridge"><polygon fill="#000000" points="311.5054,799.3906,301.5054,803.3906,311.5054,807.3906,307.5054,803.3906" style="stroke:#000000;stroke-width:1;"/><line style="stroke:#000000;stroke-width:1;" x1="305.5054" x2="533.0669" y1="803.3906" y2="803.3906"/><text fill="#000000" font-family="Verdana" font-size="13" lengthAdjust="spacing" textLength="91.5396" x="317.5054" y="798.3247">Room created</text></g><g class="message" data-participant-1="Bridge" data-participant-2="Synapse"><polygon fill="#000000" points="522.0669,839.0898,532.0669,843.0898,522.0669,847.0898,526.0669,843.0898" style="stroke:#000000;stroke-width:1;"/><line style="stroke:#000000;stroke-width:1;" x1="300.5054" x2="528.0669" y1="843.0898" y2="843.0898"/><text fill="#000000" font-family="Verdana" font-size="13" lengthAdjust="spacing" textLength="124.1221" x="307.5054" y="838.0239">Link room to space</text></g><path d="M539,816.3906 L539,856.3906 L767,856.3906 L767,826.3906 L757,816.3906 L539,816.3906" fill="#FFFFFF" style="stroke:#000000;stroke-width:1;"/><path d="M757,816.3906 L757,826.3906 L767,826.3906 L757,816.3906" fill="#FFFFFF" style="stroke:#000000;stroke-width:1;"/><text fill="#000000" font-family="Verdana" font-size="13" lengthAdjust="spacing" textLength="207.4478" x="545" y="833.4575">m.space.parent (room &#8594; space)</text><text fill="#000000" font-family="Verdana" font-size="13" lengthAdjust="spacing" textLength="195.4126" x="545" y="848.5903">m.space.child (space &#8594; room)</text><rect fill="#FFFFFF" height="3" style="stroke:#FFFFFF;stroke-width:1;" width="1444.1699" x="5" y="882.2227"/><line style="stroke:#000000;stroke-width:0.5;" x1="5" x2="1449.1699" y1="882.2227" y2="882.2227"/><line style="stroke:#000000;stroke-width:0.5;" x1="5" x2="1449.1699" y1="885.2227" y2="885.2227"/><rect fill="#FFFFFF" height="23.1328" style="stroke:#000000;stroke-width:1;" width="241.8555" x="606.1572" y="871.6563"/><text fill="#000000" font-family="Verdana" font-size="13" font-weight="bold" lengthAdjust="spacing" textLength="223.3296" x="612.1572" y="887.7231">Cross-Organization Invitations</text><path d="M218.8179,911.7891 L283.2607,911.7891 L283.2607,918.9219 L273.2607,928.9219 L218.8179,928.9219 L218.8179,911.7891" fill="#FFFFFF" style="stroke:#000000;stroke-width:1;"/><rect fill="none" height="307.5938" style="stroke:#000000;stroke-width:1;" width="1220.3521" x="218.8179" y="911.7891"/><text fill="#000000" font-family="Verdana" font-size="13" font-weight="bold" lengthAdjust="spacing" textLength="19.4429" x="233.8179" y="924.856">alt</text><text fill="#000000" font-family="Verdana" font-size="11" font-weight="bold" lengthAdjust="spacing" textLength="189.0249" x="298.2607" y="923.9995">[External practitioner needed]</text><g class="message" data-participant-1="Bridge" data-participant-2="Identity"><polygon fill="#000000" points="697.9253,946.0547,707.9253,950.0547,697.9253,954.0547,701.9253,950.0547" style="stroke:#000000;stroke-width:1;"/><line style="stroke:#000000;stroke-width:1;" x1="300.5054" x2="703.9253" y1="950.0547" y2="950.0547"/><text fill="#000000" font-family="Verdana" font-size="13" lengthAdjust="spacing" textLength="137.7378" x="307.5054" y="944.9888">Lookup external user</text></g><g class="message" data-participant-1="Identity" data-participant-2="IdentityBridge"><polygon fill="#000000" points="868.5063,975.1875,878.5063,979.1875,868.5063,983.1875,872.5063,979.1875" style="stroke:#000000;stroke-width:1;"/><line style="stroke:#000000;stroke-width:1;" x1="709.9253" x2="874.5063" y1="979.1875" y2="979.1875"/><text fill="#000000" font-family="Verdana" font-size="13" lengthAdjust="spacing" textLength="100.6421" x="716.9253" y="974.1216">Forward lookup</text></g><g class="message" data-participant-1="IdentityBridge" data-participant-2="Backend"><polygon fill="#000000" points="1046.6655,1004.3203,1056.6655,1008.3203,1046.6655,1012.3203,1050.6655,1008.3203" style="stroke:#000000;stroke-width:1;"/><line style="stroke:#000000;stroke-width:1;" x1="880.5063" x2="1052.6655" y1="1008.3203" y2="1008.3203"/><text fill="#000000" font-family="Verdana" font-size="13" lengthAdjust="spacing" textLength="154.1592" x="887.5063" y="1003.2544">Search external system</text></g><g class="message" data-participant-1="Backend" data-participant-2="IdentityBridge"><polygon fill="#000000" points="891.5063,1033.4531,881.5063,1037.4531,891.5063,1041.4531,887.5063,1037.4531" style="stroke:#000000;stroke-width:1;"/><line style="stroke:#000000;stroke-width:1;" x1="885.5063" x2="1057.6655" y1="1037.4531" y2="1037.4531"/><text fill="#000000" font-family="Verdana" font-size="13" lengthAdjust="spacing" textLength="128.0449" x="897.5063" y="1032.3872">External user found</text></g><g class="message" data-participant-1="IdentityBridge" data-participant-2="Identity"><polygon fill="#000000" points="720.9253,1062.5859,710.9253,1066.5859,720.9253,1070.5859,716.9253,1066.5859" style="stroke:#000000;stroke-width:1;"/><line style="stroke:#000000;stroke-width:1;" x1="714.9253" x2="879.5063" y1="1066.5859" y2="1066.5859"/><text fill="#000000" font-family="Verdana" font-size="13" lengthAdjust="spacing" textLength="92.6694" x="726.9253" y="1061.52">User Matrix ID</text></g><g class="message" data-participant-1="Identity" data-participant-2="Bridge"><polygon fill="#000000" points="311.5054,1091.7188,301.5054,1095.7188,311.5054,1099.7188,307.5054,1095.7188" style="stroke:#000000;stroke-width:1;"/><line style="stroke:#000000;stroke-width:1;" x1="305.5054" x2="708.9253" y1="1095.7188" y2="1095.7188"/><text fill="#000000" font-family="Verdana" font-size="13" lengthAdjust="spacing" textLength="140.3848" x="317.5054" y="1090.6528">External user identity</text></g><g class="message" data-participant-1="Bridge" data-participant-2="Synapse"><polygon fill="#000000" points="522.0669,1138.9844,532.0669,1142.9844,522.0669,1146.9844,526.0669,1142.9844" style="stroke:#000000;stroke-width:1;"/><line style="stroke:#000000;stroke-width:1;" x1="300.5054" x2="528.0669" y1="1142.9844" y2="1142.9844"/><text fill="#000000" font-family="Verdana" font-size="13" lengthAdjust="spacing" textLength="127.042" x="307.5054" y="1137.9185">Invite external user</text></g><path d="M539,1108.7188 L539,1163.7188 L716,1163.7188 L716,1118.7188 L706,1108.7188 L539,1108.7188" fill="#FFFFFF" style="stroke:#000000;stroke-width:1;"/><path d="M706,1108.7188 L706,1118.7188 L716,1118.7188 L706,1108.7188" fill="#FFFFFF" style="stroke:#000000;stroke-width:1;"/><text fill="#000000" font-family="Verdana" font-size="13" lengthAdjust="spacing" textLength="155.4541" x="545" y="1125.7856">Include patient context:</text><text fill="#000000" font-family="Verdana" font-size="13" lengthAdjust="spacing" textLength="156.4888" x="545" y="1140.9185">nl-ta-chat.invite.context</text><text fill="#000000" font-family="Verdana" font-size="13" lengthAdjust="spacing" textLength="138.4932" x="545" y="1156.0513">with Patient resource</text><g class="message" data-participant-1="Synapse" data-participant-2="External Homeserver"><polygon fill="#000000" points="1238.2568,1196.8164,1248.2568,1200.8164,1238.2568,1204.8164,1242.2568,1200.8164" style="stroke:#000000;stroke-width:1;"/><line style="stroke:#000000;stroke-width:1;" x1="534.0669" x2="1244.2568" y1="1200.8164" y2="1200.8164"/><text fill="#000000" font-family="Verdana" font-size="13" lengthAdjust="spacing" textLength="110.3223" x="541.0669" y="1195.7505">Federation invite</text></g><path d="M1255,1174.1172 L1255,1214.1172 L1423,1214.1172 L1423,1184.1172 L1413,1174.1172 L1255,1174.1172" fill="#FFFFFF" style="stroke:#000000;stroke-width:1;"/><path d="M1413,1174.1172 L1413,1184.1172 L1423,1184.1172 L1413,1174.1172" fill="#FFFFFF" style="stroke:#000000;stroke-width:1;"/><text fill="#000000" font-family="Verdana" font-size="13" lengthAdjust="spacing" textLength="147.9131" x="1261" y="1191.1841">Patient context shared</text><text fill="#000000" font-family="Verdana" font-size="13" lengthAdjust="spacing" textLength="135.9668" x="1261" y="1206.3169">for care coordination</text><rect fill="#FFFFFF" height="3" style="stroke:#FFFFFF;stroke-width:1;" width="1444.1699" x="5" y="1246.9492"/><line style="stroke:#000000;stroke-width:0.5;" x1="5" x2="1449.1699" y1="1246.9492" y2="1246.9492"/><line style="stroke:#000000;stroke-width:0.5;" x1="5" x2="1449.1699" y1="1249.9492" y2="1249.9492"/><rect fill="#FFFFFF" height="23.1328" style="stroke:#000000;stroke-width:1;" width="169.8984" x="642.1357" y="1236.3828"/><text fill="#000000" font-family="Verdana" font-size="13" font-weight="bold" lengthAdjust="spacing" textLength="151.3726" x="648.1357" y="1252.4497">Network Established</text><g class="message" data-participant-1="Bridge" data-participant-2="Platform"><polygon fill="#000000" points="108.1777,1304.7813,98.1777,1308.7813,108.1777,1312.7813,104.1777,1308.7813" style="stroke:#000000;stroke-width:1;"/><line style="stroke:#000000;stroke-width:1;" x1="102.1777" x2="299.5054" y1="1308.7813" y2="1308.7813"/><text fill="#000000" font-family="Verdana" font-size="13" lengthAdjust="spacing" textLength="166.5562" x="114.1777" y="1303.7153">Care team network ready</text></g><path d="M305,1274.5156 L305,1329.5156 L477,1329.5156 L477,1284.5156 L467,1274.5156 L305,1274.5156" fill="#FFFFFF" style="stroke:#000000;stroke-width:1;"/><path d="M467,1274.5156 L467,1284.5156 L477,1284.5156 L467,1274.5156" fill="#FFFFFF" style="stroke:#000000;stroke-width:1;"/><text fill="#000000" font-family="Verdana" font-size="13" lengthAdjust="spacing" textLength="137.1348" x="311" y="1291.5825">Matrix space created</text><text fill="#000000" font-family="Verdana" font-size="13" lengthAdjust="spacing" textLength="130.5776" x="311" y="1306.7153">All members invited</text><text fill="#000000" font-family="Verdana" font-size="13" lengthAdjust="spacing" textLength="151.3281" x="311" y="1321.8481">Permissions configured</text><!--SRC=[TLRRRkCs47tNLqppbA2sirjWKS102YHnqXZDResu-r88ABZYs29CaIf9nUj-G3zWFt6_fCER8ZLANcpHPmxFp9mPvGTNOuFGIYPKuOIJ20_8fAihPX1kTTDqIbJC2QtW4xgZDWUuDHWFxgK-5aNBZ1ELQ9boS3O8taZcTjeqPy1i_p16vrEuCOBlCI3Zrp7k8tD6V8NjIR7MHbZwFiOrxBtbiEQeA9KJRD4yemdmV3Q57roUOLCYRbXrGCNfPkkmATNvRtYgf6Q7o-PskxfStLn4_H5M55TNSElhy0UovgLcLrT5qQSz_oLTlWpGWAmy4lbbrtB_MIZj48pOruv0MZbg59MJo4Zf33Q6LIIOcD7OMQcUKFge3JrfPOiYqeUBegubF6fzw5heB1eGCL-1TdJFvp_NC_ZyT3q3R9YG84C8iQKI4DsuKXJYwImoKzLWyEyEhIl6c9680AS4sP1pnFKY3Nw4P83rQfHIyi0oLXSpQjko2aVvX1COzADKL7-mBLPY9ofeOpcBmXVpsLDbUwNFqMs_8XKxW0BjUZL4vHpYRwcP1STNpDuV8T7UhXzPsmgr3nQXYhTmJnefi0RdZT5WymLD0VGtKO9hpcDBcyHYdRyDdtrUFcPOZwgpJZSBZ_yhuMsfjY7YWATbhcGWNAzAvOr7H4kuVrW_KNztiu57Z9POPCjlz95Y7kbU2TVMYhrgA33aDA5wYmxQ425znDY5xz-zMmv6w14PBzNF7vPZqvVg0y6Ixo4PlrG_ULnigmt2GaFcJret4KpHjXQjVKjQyfHGT16JK6b5kyJ68JR4CjNqm9vxFaNwADGXH8FJPB__-xHPXBC5xHrVjFE0_FxljmYzA5K6LBMG7Cx3Gm1uv4NSEKPRE__Tx9aI_qIvQ_KiNCmuP4ih6kw-EZIA4ci7nGI5o4dws6FPeFtgm1ph_H70lOSdDWEv-CWCpqja29zO3DkuGlehRDYsKT7Rs-Tkg0XskbFyZOjUaWd3ro-MLsbCKuly7l7mjsOnr1idoZJizLfLikEOTuytcAE8PQcKd3ishshc5Y8mBT9lfJeALsTRqnXQtHcoKAzbOCcpNlU3Rj36Do4rW_fheYiYzojTcx4Ui3MPaSU56TxhbTQ62nL8-h7F_nlSqThv8eMjQHR7WvLVUccamqfJAOecXfz6av3wOeTRj5JNKgOrQ9DyEgIHRmHj6kzk4hqJ-uu45_y1]--></g></svg>