<svg xmlns="http://www.w3.org/2000/svg" xmlns:xlink="http://www.w3.org/1999/xlink" contentStyleType="text/css" data-diagram-type="SEQUENCE" height="1169px" preserveAspectRatio="none" style="width:1828px;height:1169px;background:#FFFFFF;" version="1.1" viewBox="0 0 1828 1169" width="1828px" zoomAndPan="magnify"><defs/><g><rect fill="none" height="76.2031" style="stroke:#000000;stroke-width:1.5;" width="1048.3511" x="577.9448" y="623.8516"/><g><title>Practitioner</title><rect fill="#000000" fill-opacity="0.00000" height="975.0547" width="8" x="44.52" y="97.5938"/><line style="stroke:#181818;stroke-width:0.5;stroke-dasharray:5.0,5.0;" x1="48" x2="48" y1="97.5938" y2="1072.6484"/></g><g><title>IdP / SAML</title><rect fill="#000000" fill-opacity="0.00000" height="975.0547" width="8" x="185.7231" y="97.5938"/><line style="stroke:#181818;stroke-width:0.5;stroke-dasharray:5.0,5.0;" x1="189.0142" x2="189.0142" y1="97.5938" y2="1072.6484"/></g><g><title>LRZA / mCSD Directory</title><rect fill="#000000" fill-opacity="0.00000" height="975.0547" width="8" x="319.7695" y="97.5938"/><line style="stroke:#181818;stroke-width:0.5;stroke-dasharray:5.0,5.0;" x1="323.4321" x2="323.4321" y1="97.5938" y2="1072.6484"/></g><g><title>Homeserver</title><rect fill="#000000" fill-opacity="0.00000" height="975.0547" width="8" x="494.0259" y="97.5938"/><line style="stroke:#181818;stroke-width:0.5;stroke-dasharray:5.0,5.0;" x1="497.1069" x2="497.1069" y1="97.5938" y2="1072.6484"/></g><g><title>OZO Matrix Bridge</title><rect fill="#000000" fill-opacity="0.00000" height="975.0547" width="8" x="656.0674" y="97.5938"/><line style="stroke:#181818;stroke-width:0.5;stroke-dasharray:5.0,5.0;" x1="659.9448" x2="659.9448" y1="97.5938" y2="1072.6484"/></g><g><title>Homeserver</title><rect fill="#000000" fill-opacity="0.00000" height="975.0547" width="8" x="793.1816" y="97.5938"/><line style="stroke:#181818;stroke-width:0.5;stroke-dasharray:5.0,5.0;" x1="796.1899" x2="796.1899" y1="97.5938" y2="1072.6484"/></g><g><title>Related Person</title><rect fill="#000000" fill-opacity="0.00000" height="975.0547" width="8" x="955.0146" y="97.5938"/><line style="stroke:#181818;stroke-width:0.5;stroke-dasharray:5.0,5.0;" x1="958.1182" x2="958.1182" y1="97.5938" y2="1072.6484"/></g><g><title>Email Service</title><rect fill="#000000" fill-opacity="0.00000" height="975.0547" width="8" x="1080.1201" y="97.5938"/><line style="stroke:#181818;stroke-width:0.5;stroke-dasharray:5.0,5.0;" x1="1083.6035" x2="1083.6035" y1="97.5938" y2="1072.6484"/></g><g><title>Homeserver</title><rect fill="#000000" fill-opacity="0.00000" height="975.0547" width="8" x="1194.4844" y="97.5938"/><line style="stroke:#181818;stroke-width:0.5;stroke-dasharray:5.0,5.0;" x1="1197.6367" x2="1197.6367" y1="97.5938" y2="1072.6484"/></g><g><title>Homeserver</title><rect fill="#000000" fill-opacity="0.00000" height="975.0547" width="8" x="1307.9771" y="97.5938"/><line style="stroke:#181818;stroke-width:0.5;stroke-dasharray:5.0,5.0;" x1="1311.332" x2="1311.332" y1="97.5938" y2="1072.6484"/></g><g><title>Matrix Space</title><rect fill="#000000" fill-opacity="0.00000" height="975.0547" width="8" x="1426.2178" y="97.5938"/><line style="stroke:#181818;stroke-width:0.5;stroke-dasharray:5.0,5.0;" x1="1429.6221" x2="1429.6221" y1="97.5938" y2="1072.6484"/></g><g><title>Matrix Room</title><rect fill="#000000" fill-opacity="0.00000" height="975.0547" width="8" x="1551.5547" y="97.5938"/><line style="stroke:#181818;stroke-width:0.5;stroke-dasharray:5.0,5.0;" x1="1554.8135" x2="1554.8135" y1="97.5938" y2="1072.6484"/></g><g><title>OldVendor</title><rect fill="#000000" fill-opacity="0.00000" height="975.0547" width="8" x="1666.3296" y="97.5938"/><line style="stroke:#181818;stroke-width:0.5;stroke-dasharray:5.0,5.0;" x1="1670.2959" x2="1670.2959" y1="97.5938" y2="1072.6484"/></g><g class="participant participant-head" data-participant="Practitioner"><text fill="#000000" font-family="sans-serif" font-size="14" lengthAdjust="spacing" textLength="81.04" x="5" y="77.9951">Practitioner</text><text fill="#000000" font-family="sans-serif" font-size="14" lengthAdjust="spacing" textLength="80.1787" x="5.4307" y="94.292">(client app)</text><ellipse cx="48.52" cy="13.5" fill="#E2E2F0" rx="8" ry="8" style="stroke:#181818;stroke-width:0.5;"/><path d="M48.52,21.5 L48.52,48.5 M35.52,29.5 L61.52,29.5 M48.52,48.5 L35.52,63.5 M48.52,48.5 L61.52,63.5" fill="none" style="stroke:#181818;stroke-width:0.5;"/></g><g class="participant participant-tail" data-participant="Practitioner"><text fill="#000000" font-family="sans-serif" font-size="14" lengthAdjust="spacing" textLength="81.04" x="5" y="1084.6436">Practitioner</text><text fill="#000000" font-family="sans-serif" font-size="14" lengthAdjust="spacing" textLength="80.1787" x="5.4307" y="1100.9404">(client app)</text><ellipse cx="48.52" cy="1112.7422" fill="#E2E2F0" rx="8" ry="8" style="stroke:#181818;stroke-width:0.5;"/><path d="M48.52,1120.7422 L48.52,1147.7422 M35.52,1128.7422 L61.52,1128.7422 M48.52,1147.7422 L35.52,1162.7422 M48.52,1147.7422 L61.52,1162.7422" fill="none" style="stroke:#181818;stroke-width:0.5;"/></g><g class="participant participant-head" data-participant="IdP"><text fill="#000000" font-family="sans-serif" font-size="14" lengthAdjust="spacing" textLength="73.418" x="150.0142" y="94.292">IdP / SAML</text><path d="M171.7231,45.2969 C171.7231,35.2969 189.7231,35.2969 189.7231,35.2969 C189.7231,35.2969 207.7231,35.2969 207.7231,45.2969 L207.7231,71.2969 C207.7231,81.2969 189.7231,81.2969 189.7231,81.2969 C189.7231,81.2969 171.7231,81.2969 171.7231,71.2969 L171.7231,45.2969" fill="#E2E2F0" style="stroke:#181818;stroke-width:1.5;"/><path d="M171.7231,45.2969 C171.7231,55.2969 189.7231,55.2969 189.7231,55.2969 C189.7231,55.2969 207.7231,55.2969 207.7231,45.2969" fill="none" style="stroke:#181818;stroke-width:1.5;"/></g><g class="participant participant-tail" data-participant="IdP"><text fill="#000000" font-family="sans-serif" font-size="14" lengthAdjust="spacing" textLength="73.418" x="150.0142" y="1084.6436">IdP / SAML</text><path d="M171.7231,1097.9453 C171.7231,1087.9453 189.7231,1087.9453 189.7231,1087.9453 C189.7231,1087.9453 207.7231,1087.9453 207.7231,1097.9453 L207.7231,1123.9453 C207.7231,1133.9453 189.7231,1133.9453 189.7231,1133.9453 C189.7231,1133.9453 171.7231,1133.9453 171.7231,1123.9453 L171.7231,1097.9453" fill="#E2E2F0" style="stroke:#181818;stroke-width:1.5;"/><path d="M171.7231,1097.9453 C171.7231,1107.9453 189.7231,1107.9453 189.7231,1107.9453 C189.7231,1107.9453 207.7231,1107.9453 207.7231,1097.9453" fill="none" style="stroke:#181818;stroke-width:1.5;"/></g><g class="participant participant-head" data-participant="Directory"><text fill="#000000" font-family="sans-serif" font-size="14" lengthAdjust="spacing" textLength="162.6748" x="239.4321" y="94.292">LRZA / mCSD Directory</text><path d="M305.7695,45.2969 C305.7695,35.2969 323.7695,35.2969 323.7695,35.2969 C323.7695,35.2969 341.7695,35.2969 341.7695,45.2969 L341.7695,71.2969 C341.7695,81.2969 323.7695,81.2969 323.7695,81.2969 C323.7695,81.2969 305.7695,81.2969 305.7695,71.2969 L305.7695,45.2969" fill="#E2E2F0" style="stroke:#181818;stroke-width:1.5;"/><path d="M305.7695,45.2969 C305.7695,55.2969 323.7695,55.2969 323.7695,55.2969 C323.7695,55.2969 341.7695,55.2969 341.7695,45.2969" fill="none" style="stroke:#181818;stroke-width:1.5;"/></g><g class="participant participant-tail" data-participant="Directory"><text fill="#000000" font-family="sans-serif" font-size="14" lengthAdjust="spacing" textLength="162.6748" x="239.4321" y="1084.6436">LRZA / mCSD Directory</text><path d="M305.7695,1097.9453 C305.7695,1087.9453 323.7695,1087.9453 323.7695,1087.9453 C323.7695,1087.9453 341.7695,1087.9453 341.7695,1097.9453 L341.7695,1123.9453 C341.7695,1133.9453 323.7695,1133.9453 323.7695,1133.9453 C323.7695,1133.9453 305.7695,1133.9453 305.7695,1123.9453 L305.7695,1097.9453" fill="#E2E2F0" style="stroke:#181818;stroke-width:1.5;"/><path d="M305.7695,1097.9453 C305.7695,1107.9453 323.7695,1107.9453 323.7695,1107.9453 C323.7695,1107.9453 341.7695,1107.9453 341.7695,1097.9453" fill="none" style="stroke:#181818;stroke-width:1.5;"/></g><g class="participant participant-head" data-participant="HSP"><rect fill="#E2E2F0" height="46.5938" rx="2.5" ry="2.5" style="stroke:#181818;stroke-width:0.5;" width="159.8379" x="418.1069" y="50"/><text fill="#000000" font-family="sans-serif" font-size="14" lengthAdjust="spacing" textLength="85.6611" x="455.1953" y="69.9951">Homeserver</text><text fill="#000000" font-family="sans-serif" font-size="14" lengthAdjust="spacing" textLength="145.8379" x="425.1069" y="86.292">(practitioner vendor)</text></g><g class="participant participant-tail" data-participant="HSP"><rect fill="#E2E2F0" height="46.5938" rx="2.5" ry="2.5" style="stroke:#181818;stroke-width:0.5;" width="159.8379" x="418.1069" y="1071.6484"/><text fill="#000000" font-family="sans-serif" font-size="14" lengthAdjust="spacing" textLength="85.6611" x="455.1953" y="1091.6436">Homeserver</text><text fill="#000000" font-family="sans-serif" font-size="14" lengthAdjust="spacing" textLength="145.8379" x="425.1069" y="1107.9404">(practitioner vendor)</text></g><g class="participant participant-head" data-participant="Bridge"><rect fill="#E2E2F0" height="30.2969" rx="2.5" ry="2.5" style="stroke:#181818;stroke-width:0.5;" width="144.2451" x="587.9448" y="66.2969"/><text fill="#000000" font-family="sans-serif" font-size="14" lengthAdjust="spacing" textLength="130.2451" x="594.9448" y="86.292">OZO Matrix Bridge</text></g><g class="participant participant-tail" data-participant="Bridge"><rect fill="#E2E2F0" height="30.2969" rx="2.5" ry="2.5" style="stroke:#181818;stroke-width:0.5;" width="144.2451" x="587.9448" y="1071.6484"/><text fill="#000000" font-family="sans-serif" font-size="14" lengthAdjust="spacing" textLength="130.2451" x="594.9448" y="1091.6436">OZO Matrix Bridge</text></g><g class="participant participant-head" data-participant="HSO"><rect fill="#E2E2F0" height="46.5938" rx="2.5" ry="2.5" style="stroke:#181818;stroke-width:0.5;" width="109.9834" x="742.1899" y="50"/><text fill="#000000" font-family="sans-serif" font-size="14" lengthAdjust="spacing" textLength="85.6611" x="754.3511" y="69.9951">Homeserver</text><text fill="#000000" font-family="sans-serif" font-size="14" lengthAdjust="spacing" textLength="95.9834" x="749.1899" y="86.292">(OZO vendor)</text></g><g class="participant participant-tail" data-participant="HSO"><rect fill="#E2E2F0" height="46.5938" rx="2.5" ry="2.5" style="stroke:#181818;stroke-width:0.5;" width="109.9834" x="742.1899" y="1071.6484"/><text fill="#000000" font-family="sans-serif" font-size="14" lengthAdjust="spacing" textLength="85.6611" x="754.3511" y="1091.6436">Homeserver</text><text fill="#000000" font-family="sans-serif" font-size="14" lengthAdjust="spacing" textLength="95.9834" x="749.1899" y="1107.9404">(OZO vendor)</text></g><g class="participant participant-head" data-participant="RelatedPerson"><text fill="#000000" font-family="sans-serif" font-size="14" lengthAdjust="spacing" textLength="105.793" x="903.1182" y="94.292">Related Person</text><ellipse cx="959.0146" cy="29.7969" fill="#E2E2F0" rx="8" ry="8" style="stroke:#181818;stroke-width:0.5;"/><path d="M959.0146,37.7969 L959.0146,64.7969 M946.0146,45.7969 L972.0146,45.7969 M959.0146,64.7969 L946.0146,79.7969 M959.0146,64.7969 L972.0146,79.7969" fill="none" style="stroke:#181818;stroke-width:0.5;"/></g><g class="participant participant-tail" data-participant="RelatedPerson"><text fill="#000000" font-family="sans-serif" font-size="14" lengthAdjust="spacing" textLength="105.793" x="903.1182" y="1084.6436">Related Person</text><ellipse cx="959.0146" cy="1096.4453" fill="#E2E2F0" rx="8" ry="8" style="stroke:#181818;stroke-width:0.5;"/><path d="M959.0146,1104.4453 L959.0146,1131.4453 M946.0146,1112.4453 L972.0146,1112.4453 M959.0146,1131.4453 L946.0146,1146.4453 M959.0146,1131.4453 L972.0146,1146.4453" fill="none" style="stroke:#181818;stroke-width:0.5;"/></g><g class="participant participant-head" data-participant="Email"><rect fill="#E2E2F0" height="30.2969" rx="2.5" ry="2.5" style="stroke:#181818;stroke-width:0.5;" width="109.0332" x="1029.6035" y="66.2969"/><text fill="#000000" font-family="sans-serif" font-size="14" lengthAdjust="spacing" textLength="95.0332" x="1036.6035" y="86.292">Email Service</text></g><g class="participant participant-tail" data-participant="Email"><rect fill="#E2E2F0" height="30.2969" rx="2.5" ry="2.5" style="stroke:#181818;stroke-width:0.5;" width="109.0332" x="1029.6035" y="1071.6484"/><text fill="#000000" font-family="sans-serif" font-size="14" lengthAdjust="spacing" textLength="95.0332" x="1036.6035" y="1091.6436">Email Service</text></g><g class="participant participant-head" data-participant="HSOld"><rect fill="#E2E2F0" height="46.5938" rx="2.5" ry="2.5" style="stroke:#181818;stroke-width:0.5;" width="99.6953" x="1148.6367" y="50"/><text fill="#000000" font-family="sans-serif" font-size="14" lengthAdjust="spacing" textLength="85.6611" x="1155.6538" y="69.9951">Homeserver</text><text fill="#000000" font-family="sans-serif" font-size="14" lengthAdjust="spacing" textLength="85.6953" x="1155.6367" y="86.292">(old vendor)</text></g><g class="participant participant-tail" data-participant="HSOld"><rect fill="#E2E2F0" height="46.5938" rx="2.5" ry="2.5" style="stroke:#181818;stroke-width:0.5;" width="99.6953" x="1148.6367" y="1071.6484"/><text fill="#000000" font-family="sans-serif" font-size="14" lengthAdjust="spacing" textLength="85.6611" x="1155.6538" y="1091.6436">Homeserver</text><text fill="#000000" font-family="sans-serif" font-size="14" lengthAdjust="spacing" textLength="85.6953" x="1155.6367" y="1107.9404">(old vendor)</text></g><g class="participant participant-head" data-participant="HSNew"><rect fill="#E2E2F0" height="46.5938" rx="2.5" ry="2.5" style="stroke:#181818;stroke-width:0.5;" width="107.29" x="1258.332" y="50"/><text fill="#000000" font-family="sans-serif" font-size="14" lengthAdjust="spacing" textLength="85.6611" x="1269.1465" y="69.9951">Homeserver</text><text fill="#000000" font-family="sans-serif" font-size="14" lengthAdjust="spacing" textLength="93.29" x="1265.332" y="86.292">(new vendor)</text></g><g class="participant participant-tail" data-participant="HSNew"><rect fill="#E2E2F0" height="46.5938" rx="2.5" ry="2.5" style="stroke:#181818;stroke-width:0.5;" width="107.29" x="1258.332" y="1071.6484"/><text fill="#000000" font-family="sans-serif" font-size="14" lengthAdjust="spacing" textLength="85.6611" x="1269.1465" y="1091.6436">Homeserver</text><text fill="#000000" font-family="sans-serif" font-size="14" lengthAdjust="spacing" textLength="93.29" x="1265.332" y="1107.9404">(new vendor)</text></g><g class="participant participant-head" data-participant="Space"><rect fill="#E2E2F0" height="46.5938" style="stroke:#181818;stroke-width:0.5;" width="105.1914" x="1379.6221" y="46"/><rect fill="#E2E2F0" height="46.5938" style="stroke:#181818;stroke-width:0.5;" width="105.1914" x="1375.6221" y="50"/><text fill="#000000" font-family="sans-serif" font-size="14" lengthAdjust="spacing" textLength="91.1914" x="1382.6221" y="69.9951">Matrix Space</text><text fill="#000000" font-family="sans-serif" font-size="14" lengthAdjust="spacing" textLength="83.0293" x="1386.7031" y="86.292">(CareTeam)</text></g><g class="participant participant-tail" data-participant="Space"><rect fill="#E2E2F0" height="46.5938" style="stroke:#181818;stroke-width:0.5;" width="105.1914" x="1379.6221" y="1071.6484"/><rect fill="#E2E2F0" height="46.5938" style="stroke:#181818;stroke-width:0.5;" width="105.1914" x="1375.6221" y="1075.6484"/><text fill="#000000" font-family="sans-serif" font-size="14" lengthAdjust="spacing" textLength="91.1914" x="1382.6221" y="1095.6436">Matrix Space</text><text fill="#000000" font-family="sans-serif" font-size="14" lengthAdjust="spacing" textLength="83.0293" x="1386.7031" y="1111.9404">(CareTeam)</text></g><g class="participant participant-head" data-participant="Room"><rect fill="#E2E2F0" height="46.5938" style="stroke:#181818;stroke-width:0.5;" width="117.4824" x="1498.8135" y="46"/><rect fill="#E2E2F0" height="46.5938" style="stroke:#181818;stroke-width:0.5;" width="117.4824" x="1494.8135" y="50"/><text fill="#000000" font-family="sans-serif" font-size="14" lengthAdjust="spacing" textLength="89.0244" x="1509.0425" y="69.9951">Matrix Room</text><text fill="#000000" font-family="sans-serif" font-size="14" lengthAdjust="spacing" textLength="103.4824" x="1501.8135" y="86.292">(Conversation)</text></g><g class="participant participant-tail" data-participant="Room"><rect fill="#E2E2F0" height="46.5938" style="stroke:#181818;stroke-width:0.5;" width="117.4824" x="1498.8135" y="1071.6484"/><rect fill="#E2E2F0" height="46.5938" style="stroke:#181818;stroke-width:0.5;" width="117.4824" x="1494.8135" y="1075.6484"/><text fill="#000000" font-family="sans-serif" font-size="14" lengthAdjust="spacing" textLength="89.0244" x="1509.0425" y="1095.6436">Matrix Room</text><text fill="#000000" font-family="sans-serif" font-size="14" lengthAdjust="spacing" textLength="103.4824" x="1501.8135" y="1111.9404">(Conversation)</text></g><g class="participant participant-head" data-participant="OldVendor"><rect fill="#E2E2F0" height="30.2969" rx="2.5" ry="2.5" style="stroke:#181818;stroke-width:0.5;" width="88.0674" x="1626.2959" y="66.2969"/><text fill="#000000" font-family="sans-serif" font-size="14" lengthAdjust="spacing" textLength="74.0674" x="1633.2959" y="86.292">OldVendor</text></g><g class="participant participant-tail" data-participant="OldVendor"><rect fill="#E2E2F0" height="30.2969" rx="2.5" ry="2.5" style="stroke:#181818;stroke-width:0.5;" width="88.0674" x="1626.2959" y="1071.6484"/><text fill="#000000" font-family="sans-serif" font-size="14" lengthAdjust="spacing" textLength="74.0674" x="1633.2959" y="1091.6436">OldVendor</text></g><rect fill="#EEEEEE" height="3" style="stroke:#EEEEEE;stroke-width:1;" width="1821.1865" x="0" y="128.1602"/><line style="stroke:#000000;stroke-width:1;" x1="0" x2="1821.1865" y1="128.1602" y2="128.1602"/><line style="stroke:#000000;stroke-width:1;" x1="0" x2="1821.1865" y1="131.1602" y2="131.1602"/><rect fill="#EEEEEE" height="23.1328" style="stroke:#000000;stroke-width:2;" width="348.5977" x="736.2944" y="117.5938"/><text fill="#000000" font-family="sans-serif" font-size="13" font-weight="bold" lengthAdjust="spacing" textLength="330.0718" x="742.2944" y="133.6606">A. Practitioner login &amp; homeserver discovery</text><g class="message" data-participant-1="Practitioner" data-participant-2="IdP"><polygon fill="#181818" points="177.7231,167.8594,187.7231,171.8594,177.7231,175.8594,181.7231,171.8594" style="stroke:#181818;stroke-width:1;"/><line style="stroke:#181818;stroke-width:1;" x1="48.52" x2="183.7231" y1="171.8594" y2="171.8594"/><text fill="#000000" font-family="sans-serif" font-size="13" lengthAdjust="spacing" textLength="117.2031" x="55.52" y="166.7935">SAML / OIDC login</text></g><g class="message" data-participant-1="IdP" data-participant-2="Practitioner"><polygon fill="#181818" points="59.52,196.9922,49.52,200.9922,59.52,204.9922,55.52,200.9922" style="stroke:#181818;stroke-width:1;"/><line style="stroke:#181818;stroke-width:1;stroke-dasharray:2.0,2.0;" x1="53.52" x2="188.7231" y1="200.9922" y2="200.9922"/><text fill="#000000" font-family="sans-serif" font-size="13" lengthAdjust="spacing" textLength="70.4907" x="65.52" y="195.9263">auth token</text></g><g class="message" data-participant-1="Practitioner" data-participant-2="Directory"><polygon fill="#181818" points="311.7695,241.2578,321.7695,245.2578,311.7695,249.2578,315.7695,245.2578" style="stroke:#181818;stroke-width:1;"/><line style="stroke:#181818;stroke-width:1;" x1="48.52" x2="317.7695" y1="245.2578" y2="245.2578"/><text fill="#000000" font-family="sans-serif" font-size="13" lengthAdjust="spacing" textLength="81.6626" x="55.52" y="225.0591">mCSD query</text><text fill="#000000" font-family="sans-serif" font-size="13" lengthAdjust="spacing" textLength="93.7676" x="55.52" y="240.1919">(UZI, function)</text></g><g class="message" data-participant-1="Directory" data-participant-2="Practitioner"><polygon fill="#181818" points="59.52,270.3906,49.52,274.3906,59.52,278.3906,55.52,274.3906" style="stroke:#181818;stroke-width:1;"/><line style="stroke:#181818;stroke-width:1;stroke-dasharray:2.0,2.0;" x1="53.52" x2="322.7695" y1="274.3906" y2="274.3906"/><text fill="#000000" font-family="sans-serif" font-size="13" lengthAdjust="spacing" textLength="186.7417" x="65.52" y="269.3247">homeserver = hs.provider.nl</text></g><g class="message" data-participant-1="Practitioner" data-participant-2="HSP"><polygon fill="#181818" points="486.0259,299.5234,496.0259,303.5234,486.0259,307.5234,490.0259,303.5234" style="stroke:#181818;stroke-width:1;"/><line style="stroke:#181818;stroke-width:1;" x1="48.52" x2="492.0259" y1="303.5234" y2="303.5234"/><text fill="#000000" font-family="sans-serif" font-size="13" lengthAdjust="spacing" textLength="87.1406" x="55.52" y="298.4575">/login (token)</text></g><g class="message" data-participant-1="HSP" data-participant-2="Practitioner"><polygon fill="#181818" points="59.52,328.6563,49.52,332.6563,59.52,336.6563,55.52,332.6563" style="stroke:#181818;stroke-width:1;"/><line style="stroke:#181818;stroke-width:1;stroke-dasharray:2.0,2.0;" x1="53.52" x2="497.0259" y1="332.6563" y2="332.6563"/><text fill="#000000" font-family="sans-serif" font-size="13" lengthAdjust="spacing" textLength="164.5884" x="65.52" y="327.5903">access token + device ID</text></g><rect fill="#EEEEEE" height="3" style="stroke:#EEEEEE;stroke-width:1;" width="1821.1865" x="0" y="361.2227"/><line style="stroke:#000000;stroke-width:1;" x1="0" x2="1821.1865" y1="361.2227" y2="361.2227"/><line style="stroke:#000000;stroke-width:1;" x1="0" x2="1821.1865" y1="364.2227" y2="364.2227"/><rect fill="#EEEEEE" height="23.1328" style="stroke:#000000;stroke-width:2;" width="321.0742" x="750.0562" y="350.6563"/><text fill="#000000" font-family="sans-serif" font-size="13" font-weight="bold" lengthAdjust="spacing" textLength="302.5483" x="756.0562" y="366.7231">B. Bridge auto-invite located practitioner</text><g class="message" data-participant-1="Bridge" data-participant-2="Directory"><polygon fill="#181818" points="334.7695,400.9219,324.7695,404.9219,334.7695,408.9219,330.7695,404.9219" style="stroke:#181818;stroke-width:1;"/><line style="stroke:#181818;stroke-width:1;" x1="328.7695" x2="659.0674" y1="404.9219" y2="404.9219"/><text fill="#000000" font-family="sans-serif" font-size="13" lengthAdjust="spacing" textLength="207.6572" x="340.7695" y="399.856">mCSD query(UZI = 123456789)</text></g><g class="message" data-participant-1="Directory" data-participant-2="Bridge"><polygon fill="#181818" points="648.0674,430.0547,658.0674,434.0547,648.0674,438.0547,652.0674,434.0547" style="stroke:#181818;stroke-width:1;"/><line style="stroke:#181818;stroke-width:1;stroke-dasharray:2.0,2.0;" x1="323.7695" x2="654.0674" y1="434.0547" y2="434.0547"/><text fill="#000000" font-family="sans-serif" font-size="13" lengthAdjust="spacing" textLength="169.3047" x="330.7695" y="428.9888">@dr.bakker:hs.provider.nl</text></g><g class="message" data-participant-1="Bridge" data-participant-2="Space"><polygon fill="#181818" points="1418.2178,474.3203,1428.2178,478.3203,1418.2178,482.3203,1422.2178,478.3203" style="stroke:#181818;stroke-width:1;"/><line style="stroke:#181818;stroke-width:1;" x1="660.0674" x2="1424.2178" y1="478.3203" y2="478.3203"/><text fill="#000000" font-family="sans-serif" font-size="13" lengthAdjust="spacing" textLength="150.1475" x="667.0674" y="458.1216">m.room.member invite</text><text fill="#000000" font-family="sans-serif" font-size="13" lengthAdjust="spacing" textLength="85.4902" x="667.0674" y="473.2544">(@dr.bakker)</text></g><rect fill="#EEEEEE" height="3" style="stroke:#EEEEEE;stroke-width:1;" width="1821.1865" x="0" y="506.8867"/><line style="stroke:#000000;stroke-width:1;" x1="0" x2="1821.1865" y1="506.8867" y2="506.8867"/><line style="stroke:#000000;stroke-width:1;" x1="0" x2="1821.1865" y1="509.8867" y2="509.8867"/><rect fill="#EEEEEE" height="23.1328" style="stroke:#000000;stroke-width:2;" width="199.9927" x="810.5969" y="496.3203"/><text fill="#000000" font-family="sans-serif" font-size="13" font-weight="bold" lengthAdjust="spacing" textLength="181.4668" x="816.5969" y="512.3872">C. Power-level bootstrap</text><g class="message" data-participant-1="Bridge" data-participant-2="Space"><polygon fill="#181818" points="1418.2178,561.7188,1428.2178,565.7188,1418.2178,569.7188,1422.2178,565.7188" style="stroke:#181818;stroke-width:1;"/><line style="stroke:#181818;stroke-width:1;" x1="660.0674" x2="1424.2178" y1="565.7188" y2="565.7188"/><text fill="#000000" font-family="sans-serif" font-size="13" lengthAdjust="spacing" textLength="241.8584" x="667.0674" y="545.52">m.room.power_levels { "@lead":100,</text><text fill="#000000" font-family="sans-serif" font-size="13" lengthAdjust="spacing" textLength="120.6309" x="667.0674" y="560.6528">"@dr.bakker":75 }</text></g><rect fill="#EEEEEE" height="3" style="stroke:#EEEEEE;stroke-width:1;" width="1821.1865" x="0" y="594.2852"/><line style="stroke:#000000;stroke-width:1;" x1="0" x2="1821.1865" y1="594.2852" y2="594.2852"/><line style="stroke:#000000;stroke-width:1;" x1="0" x2="1821.1865" y1="597.2852" y2="597.2852"/><rect fill="#EEEEEE" height="23.1328" style="stroke:#000000;stroke-width:2;" width="267.9189" x="776.6338" y="583.7188"/><text fill="#000000" font-family="sans-serif" font-size="13" font-weight="bold" lengthAdjust="spacing" textLength="249.3931" x="782.6338" y="599.7856">D. Patient association state event</text><path d="M577.9448,623.8516 L642.3877,623.8516 L642.3877,630.9844 L632.3877,640.9844 L577.9448,640.9844 L577.9448,623.8516" fill="#EEEEEE" style="stroke:#000000;stroke-width:1.5;"/><rect fill="none" height="76.2031" style="stroke:#000000;stroke-width:1.5;" width="1048.3511" x="577.9448" y="623.8516"/><text fill="#000000" font-family="sans-serif" font-size="13" font-weight="bold" lengthAdjust="spacing" textLength="19.4429" x="592.9448" y="636.9185">alt</text><text fill="#000000" font-family="sans-serif" font-size="11" font-weight="bold" lengthAdjust="spacing" textLength="134.5674" x="657.3877" y="636.062">[Patient not member]</text><g class="message" data-participant-1="Bridge" data-participant-2="Room"><polygon fill="#181818" points="1543.5547,673.25,1553.5547,677.25,1543.5547,681.25,1547.5547,677.25" style="stroke:#181818;stroke-width:1;"/><line style="stroke:#181818;stroke-width:1;" x1="660.0674" x2="1549.5547" y1="677.25" y2="677.25"/><text fill="#000000" font-family="sans-serif" font-size="13" lengthAdjust="spacing" textLength="105.7139" x="667.0674" y="657.0513">care.ozo.patient</text><text fill="#000000" font-family="sans-serif" font-size="13" lengthAdjust="spacing" textLength="146.7324" x="667.0674" y="672.1841">(pseudoId = p123456)</text></g><line style="stroke:#000000;stroke-width:1;stroke-dasharray:2.0,2.0;" x1="577.9448" x2="1626.2959" y1="686.25" y2="686.25"/><text fill="#000000" font-family="sans-serif" font-size="11" font-weight="bold" lengthAdjust="spacing" textLength="160.4668" x="582.9448" y="696.4604">[Patient already member]</text><rect fill="#EEEEEE" height="3" style="stroke:#EEEEEE;stroke-width:1;" width="1821.1865" x="0" y="727.6211"/><line style="stroke:#000000;stroke-width:1;" x1="0" x2="1821.1865" y1="727.6211" y2="727.6211"/><line style="stroke:#000000;stroke-width:1;" x1="0" x2="1821.1865" y1="730.6211" y2="730.6211"/><rect fill="#EEEEEE" height="23.1328" style="stroke:#000000;stroke-width:2;" width="289.1138" x="766.0364" y="717.0547"/><text fill="#000000" font-family="sans-serif" font-size="13" font-weight="bold" lengthAdjust="spacing" textLength="270.5879" x="772.0364" y="733.1216">E. Email invitation for RelatedPerson</text><g class="message" data-participant-1="Bridge" data-participant-2="Email"><polygon fill="#181818" points="1072.1201,782.4531,1082.1201,786.4531,1072.1201,790.4531,1076.1201,786.4531" style="stroke:#181818;stroke-width:1;"/><line style="stroke:#181818;stroke-width:1;" x1="660.0674" x2="1078.1201" y1="786.4531" y2="786.4531"/><text fill="#000000" font-family="sans-serif" font-size="13" lengthAdjust="spacing" textLength="96.5161" x="667.0674" y="766.2544">send invitation</text><text fill="#000000" font-family="sans-serif" font-size="13" lengthAdjust="spacing" textLength="143.2856" x="667.0674" y="781.3872">(link to @rp:hs.ozo.nl)</text></g><g class="message" data-participant-1="Email" data-participant-2="RelatedPerson"><polygon fill="#181818" points="970.0146,811.5859,960.0146,815.5859,970.0146,819.5859,966.0146,815.5859" style="stroke:#181818;stroke-width:1;"/><line style="stroke:#181818;stroke-width:1;stroke-dasharray:2.0,2.0;" x1="964.0146" x2="1083.1201" y1="815.5859" y2="815.5859"/><text fill="#000000" font-family="sans-serif" font-size="13" lengthAdjust="spacing" textLength="101.1055" x="976.0146" y="810.52">invitation email</text></g><g class="message" data-participant-1="RelatedPerson" data-participant-2="HSO"><polygon fill="#181818" points="808.1816,840.7188,798.1816,844.7188,808.1816,848.7188,804.1816,844.7188" style="stroke:#181818;stroke-width:1;"/><line style="stroke:#181818;stroke-width:1;" x1="802.1816" x2="958.0146" y1="844.7188" y2="844.7188"/><text fill="#000000" font-family="sans-serif" font-size="13" lengthAdjust="spacing" textLength="137.833" x="814.1816" y="839.6528">/register (email, 2FA)</text></g><g class="message" data-participant-1="HSO" data-participant-2="RelatedPerson"><polygon fill="#181818" points="947.0146,869.8516,957.0146,873.8516,947.0146,877.8516,951.0146,873.8516" style="stroke:#181818;stroke-width:1;"/><line style="stroke:#181818;stroke-width:1;stroke-dasharray:2.0,2.0;" x1="797.1816" x2="953.0146" y1="873.8516" y2="873.8516"/><text fill="#000000" font-family="sans-serif" font-size="13" lengthAdjust="spacing" textLength="105.7266" x="804.1816" y="868.7856">account created</text></g><rect fill="#EEEEEE" height="3" style="stroke:#EEEEEE;stroke-width:1;" width="1821.1865" x="0" y="902.418"/><line style="stroke:#000000;stroke-width:1;" x1="0" x2="1821.1865" y1="902.418" y2="902.418"/><line style="stroke:#000000;stroke-width:1;" x1="0" x2="1821.1865" y1="905.418" y2="905.418"/><rect fill="#EEEEEE" height="23.1328" style="stroke:#000000;stroke-width:2;" width="327.9678" x="746.6094" y="891.8516"/><text fill="#000000" font-family="sans-serif" font-size="13" font-weight="bold" lengthAdjust="spacing" textLength="309.4419" x="752.6094" y="907.9185">F. Vendor migration (optional future flow)</text><g class="message" data-participant-1="OldVendor" data-participant-2="Directory"><polygon fill="#181818" points="334.7695,942.1172,324.7695,946.1172,334.7695,950.1172,330.7695,946.1172" style="stroke:#181818;stroke-width:1;"/><line style="stroke:#181818;stroke-width:1;" x1="328.7695" x2="1669.3296" y1="946.1172" y2="946.1172"/><text fill="#000000" font-family="sans-serif" font-size="13" lengthAdjust="spacing" textLength="134.583" x="340.7695" y="941.0513">detect new Endpoint</text></g><g class="message" data-participant-1="OldVendor" data-participant-2="HSOld"><polygon fill="#181818" points="1209.4844,971.25,1199.4844,975.25,1209.4844,979.25,1205.4844,975.25" style="stroke:#181818;stroke-width:1;"/><line style="stroke:#181818;stroke-width:1;" x1="1203.4844" x2="1669.3296" y1="975.25" y2="975.25"/><text fill="#000000" font-family="sans-serif" font-size="13" lengthAdjust="spacing" textLength="142.8921" x="1215.4844" y="970.1841">/deactivate @user:old</text></g><g class="message" data-participant-1="OldVendor" data-participant-2="HSNew"><polygon fill="#181818" points="1322.9771,1000.3828,1312.9771,1004.3828,1322.9771,1008.3828,1318.9771,1004.3828" style="stroke:#181818;stroke-width:1;"/><line style="stroke:#181818;stroke-width:1;" x1="1316.9771" x2="1669.3296" y1="1004.3828" y2="1004.3828"/><text fill="#000000" font-family="sans-serif" font-size="13" lengthAdjust="spacing" textLength="179.3721" x="1328.9771" y="999.3169">/invite @user:new to rooms</text></g><path d="M1675,1017.3828 L1675,1057.3828 L1816,1057.3828 L1816,1027.3828 L1806,1017.3828 L1675,1017.3828" fill="#FEFFDD" style="stroke:#181818;stroke-width:0.5;"/><path d="M1806,1017.3828 L1806,1027.3828 L1816,1027.3828 L1806,1017.3828" fill="#FEFFDD" style="stroke:#181818;stroke-width:0.5;"/><text fill="#000000" font-family="sans-serif" font-size="13" lengthAdjust="spacing" textLength="96.8525" x="1681" y="1034.4497">Matrix account</text><text fill="#000000" font-family="sans-serif" font-size="13" lengthAdjust="spacing" textLength="120.1865" x="1681" y="1049.5825">migration protocol</text><!--SRC=[rLRRJXin47tVhnZbeIKgMIujfLqf5PU0Y0G4aROF2Aaowo5OEFRMTWAqgjIFw1VsIphUtMJj4FgUA58YUsu-PsuiTzh0XM6v4qveXGQg3xFG2e-lrLek1Ie7h2ZQhOGpnswOHUZp2mW_Nj6VRS1m_-mq4Em9WzxRKo1uUdcrJvBZms6lkMyb1JDEvA9WvEvaU14RFz5Zj6YcPKn56FaK5TUc7UiV6C576EWFhWPmnfmHZ_NTeh_1V_nvvRaRLe9tYP8vv1Teh5QDMdqCrNdiusZCX0nzL0T3yYBov_58_c8yckwMFljaU8uFBwefkfkhvLfAGfumj30iM8wXMerKUKwAXypWPsJZ1RLBhSUmHCsVUosjoAzbNfWqazT___nUnM_IxS9-6fUBr2EXu1NSpV45BcokwSyJTBj99Dpv5DPBLfO8vV-Wtpki32LHENL8FjBFW4tS7JXzZ-gPvR30iggclaye2YBWorL_7MudggIhdSIbkCHBy9WktDcqC7egE9fKoMTkemBDOAC2PAsCiPr4jylUa-TeRVKYU0CSVGL0lxVQINAGpleEyQKxGas5Gs8uBrj2rBGeHMhHYCAGG4yVyR2r_VRTpllT3nz30ZsajNu6UzoaD-p-7assG5hZ8gXmyf4Qgj1qZECR2gKAazAbiTDURHuEgLZr0vgEn2bAkD7QMMTO4QDUGJ97e_0QtqeD2p-XjIUHyLQsjRcvVgrQ3JQjR7S7VgqsG3q2YDfoETUjrRaeUpHOHuaAX02T4rHCkhcOqWwgV0aGBFj_1ZbDXrJ_q6bH2Vi1RN72TPzJ_XPL0hSJmXKRjz8Gl4ypcsGUmOZHdSlWN0C-4brHE0gH8qzeUAqsyaTflGQKLLV1VljidOZoj9BFmDBZ0pL2MGfrJpqKzapXAzzJe6GxgVSCtoDYirde5RrK4WkKVNtWsxd1aR2EkiDQARSEsyVxlgqFbfgbTgudn59EfDBvQbDqdCBNSac2iHYP2gmrNVXV9ccSkeb1k9NweUrveZMjbbvev1mT_GU_SnqfNcYXN2pSh7Y4DqS_7AO-uVScD8CpMl4MnMUh7OdNewKIzIue2tmNiq4bWRw5na8sstvhhgvLypeQ6KxJOfVy0m00]--></g></svg>