<svg xmlns="http://www.w3.org/2000/svg" xmlns:xlink="http://www.w3.org/1999/xlink" contentStyleType="text/css" data-diagram-type="SEQUENCE" height="1020px" preserveAspectRatio="none" style="width:1299px;height:1020px;background:#FFFFFF;" version="1.1" viewBox="0 0 1299 1020" width="1299px" zoomAndPan="magnify"><title>Healthcare Provider Matrix ID Resolution Process</title><defs/><g><text fill="#000000" font-family="sans-serif" font-size="14" font-weight="bold" lengthAdjust="spacing" textLength="390.708" x="455.5898" y="27.9951">Healthcare Provider Matrix ID Resolution Process</text><rect fill="none" height="544.6719" style="stroke:#000000;stroke-width:1.5;" width="1282.8877" x="10" y="317.5234"/><rect fill="none" height="148.4688" style="stroke:#000000;stroke-width:1.5;" width="1262.8877" x="20" y="370.7891"/><rect fill="none" height="278" style="stroke:#000000;stroke-width:1.5;" width="885.3872" x="397.5005" y="577.1953"/><rect fill="none" height="46.2656" style="stroke:#000000;stroke-width:1.5;" width="503.5259" x="20" y="876.1953"/><g><title>Zorgverlener</title><rect fill="#000000" fill-opacity="0.00000" height="820.8672" width="8" x="74.5991" y="118.5938"/><line style="stroke:#181818;stroke-width:0.5;stroke-dasharray:5.0,5.0;" x1="78" x2="78" y1="118.5938" y2="939.4609"/></g><g><title>Identity Provider</title><rect fill="#000000" fill-opacity="0.00000" height="820.8672" width="8" x="198.3481" y="118.5938"/><line style="stroke:#181818;stroke-width:0.5;stroke-dasharray:5.0,5.0;" x1="202.1982" x2="202.1982" y1="118.5938" y2="939.4609"/></g><g><title>Zorgsysteem</title><rect fill="#000000" fill-opacity="0.00000" height="820.8672" width="8" x="456.5132" y="118.5938"/><line style="stroke:#181818;stroke-width:0.5;stroke-dasharray:5.0,5.0;" x1="460.5005" x2="460.5005" y1="118.5938" y2="939.4609"/></g><g><title>NUTS Discovery</title><rect fill="#000000" fill-opacity="0.00000" height="820.8672" width="8" x="721.9907" y="118.5938"/><line style="stroke:#181818;stroke-width:0.5;stroke-dasharray:5.0,5.0;" x1="725.1035" x2="725.1035" y1="118.5938" y2="939.4609"/></g><g><title>mCSD Service</title><rect fill="#000000" fill-opacity="0.00000" height="820.8672" width="8" x="851.5137" y="118.5938"/><line style="stroke:#181818;stroke-width:0.5;stroke-dasharray:5.0,5.0;" x1="854.8779" x2="854.8779" y1="118.5938" y2="939.4609"/></g><g><title>Matrix</title><rect fill="#000000" fill-opacity="0.00000" height="820.8672" width="8" x="977.1572" y="118.5938"/><line style="stroke:#181818;stroke-width:0.5;stroke-dasharray:5.0,5.0;" x1="981.1494" x2="981.1494" y1="118.5938" y2="939.4609"/></g><g><title>Matrix</title><rect fill="#000000" fill-opacity="0.00000" height="820.8672" width="8" x="1219.0571" y="118.5938"/><line style="stroke:#181818;stroke-width:0.5;stroke-dasharray:5.0,5.0;" x1="1222.2266" x2="1222.2266" y1="118.5938" y2="939.4609"/></g><g class="participant participant-head" data-participant="User"><text fill="#000000" font-family="sans-serif" font-size="14" lengthAdjust="spacing" textLength="91.1982" x="30" y="115.292">Zorgverlener</text><ellipse cx="78.5991" cy="50.7969" fill="#E2E2F0" rx="8" ry="8" style="stroke:#181818;stroke-width:0.5;"/><path d="M78.5991,58.7969 L78.5991,85.7969 M65.5991,66.7969 L91.5991,66.7969 M78.5991,85.7969 L65.5991,100.7969 M78.5991,85.7969 L91.5991,100.7969" fill="none" style="stroke:#181818;stroke-width:0.5;"/></g><g class="participant participant-tail" data-participant="User"><text fill="#000000" font-family="sans-serif" font-size="14" lengthAdjust="spacing" textLength="91.1982" x="30" y="951.4561">Zorgverlener</text><ellipse cx="78.5991" cy="963.2578" fill="#E2E2F0" rx="8" ry="8" style="stroke:#181818;stroke-width:0.5;"/><path d="M78.5991,971.2578 L78.5991,998.2578 M65.5991,979.2578 L91.5991,979.2578 M78.5991,998.2578 L65.5991,1013.2578 M78.5991,998.2578 L91.5991,1013.2578" fill="none" style="stroke:#181818;stroke-width:0.5;"/></g><g class="participant participant-head" data-participant="IdP"><rect fill="#E2E2F0" height="46.5938" rx="2.5" ry="2.5" style="stroke:#181818;stroke-width:0.5;" width="130.2998" x="137.1982" y="71"/><text fill="#000000" font-family="sans-serif" font-size="14" lengthAdjust="spacing" textLength="116.2998" x="144.1982" y="90.9951">Identity Provider</text><text fill="#000000" font-family="sans-serif" font-size="14" lengthAdjust="spacing" textLength="32.3818" x="186.1572" y="107.292">(IdP)</text></g><g class="participant participant-tail" data-participant="IdP"><rect fill="#E2E2F0" height="46.5938" rx="2.5" ry="2.5" style="stroke:#181818;stroke-width:0.5;" width="130.2998" x="137.1982" y="938.4609"/><text fill="#000000" font-family="sans-serif" font-size="14" lengthAdjust="spacing" textLength="116.2998" x="144.1982" y="958.4561">Identity Provider</text><text fill="#000000" font-family="sans-serif" font-size="14" lengthAdjust="spacing" textLength="32.3818" x="186.1572" y="974.7529">(IdP)</text></g><g class="participant participant-head" data-participant="System"><rect fill="#E2E2F0" height="30.2969" rx="2.5" ry="2.5" style="stroke:#181818;stroke-width:0.5;" width="106.0254" x="407.5005" y="87.2969"/><text fill="#000000" font-family="sans-serif" font-size="14" lengthAdjust="spacing" textLength="92.0254" x="414.5005" y="107.292">Zorgsysteem</text></g><g class="participant participant-tail" data-participant="System"><rect fill="#E2E2F0" height="30.2969" rx="2.5" ry="2.5" style="stroke:#181818;stroke-width:0.5;" width="106.0254" x="407.5005" y="938.4609"/><text fill="#000000" font-family="sans-serif" font-size="14" lengthAdjust="spacing" textLength="92.0254" x="414.5005" y="958.4561">Zorgsysteem</text></g><g class="participant participant-head" data-participant="NUTS"><rect fill="#E2E2F0" height="30.2969" rx="2.5" ry="2.5" style="stroke:#181818;stroke-width:0.5;" width="125.7744" x="663.1035" y="87.2969"/><text fill="#000000" font-family="sans-serif" font-size="14" lengthAdjust="spacing" textLength="111.7744" x="670.1035" y="107.292">NUTS Discovery</text></g><g class="participant participant-tail" data-participant="NUTS"><rect fill="#E2E2F0" height="30.2969" rx="2.5" ry="2.5" style="stroke:#181818;stroke-width:0.5;" width="125.7744" x="663.1035" y="938.4609"/><text fill="#000000" font-family="sans-serif" font-size="14" lengthAdjust="spacing" textLength="111.7744" x="670.1035" y="958.4561">NUTS Discovery</text></g><g class="participant participant-head" data-participant="mCSD"><rect fill="#E2E2F0" height="30.2969" rx="2.5" ry="2.5" style="stroke:#181818;stroke-width:0.5;" width="113.2715" x="798.8779" y="87.2969"/><text fill="#000000" font-family="sans-serif" font-size="14" lengthAdjust="spacing" textLength="99.2715" x="805.8779" y="107.292">mCSD Service</text></g><g class="participant participant-tail" data-participant="mCSD"><rect fill="#E2E2F0" height="30.2969" rx="2.5" ry="2.5" style="stroke:#181818;stroke-width:0.5;" width="113.2715" x="798.8779" y="938.4609"/><text fill="#000000" font-family="sans-serif" font-size="14" lengthAdjust="spacing" textLength="99.2715" x="805.8779" y="958.4561">mCSD Service</text></g><g class="participant participant-head" data-participant="MatrixIS"><rect fill="#E2E2F0" height="46.5938" rx="2.5" ry="2.5" style="stroke:#181818;stroke-width:0.5;" width="118.0156" x="922.1494" y="71"/><text fill="#000000" font-family="sans-serif" font-size="14" lengthAdjust="spacing" textLength="44.0781" x="959.1182" y="90.9951">Matrix</text><text fill="#000000" font-family="sans-serif" font-size="14" lengthAdjust="spacing" textLength="104.0156" x="929.1494" y="107.292">Identity Server</text></g><g class="participant participant-tail" data-participant="MatrixIS"><rect fill="#E2E2F0" height="46.5938" rx="2.5" ry="2.5" style="stroke:#181818;stroke-width:0.5;" width="118.0156" x="922.1494" y="938.4609"/><text fill="#000000" font-family="sans-serif" font-size="14" lengthAdjust="spacing" textLength="44.0781" x="959.1182" y="958.4561">Matrix</text><text fill="#000000" font-family="sans-serif" font-size="14" lengthAdjust="spacing" textLength="104.0156" x="929.1494" y="974.7529">Identity Server</text></g><g class="participant participant-head" data-participant="MatrixHS"><rect fill="#E2E2F0" height="46.5938" rx="2.5" ry="2.5" style="stroke:#181818;stroke-width:0.5;" width="99.6611" x="1173.2266" y="71"/><text fill="#000000" font-family="sans-serif" font-size="14" lengthAdjust="spacing" textLength="44.0781" x="1201.0181" y="90.9951">Matrix</text><text fill="#000000" font-family="sans-serif" font-size="14" lengthAdjust="spacing" textLength="85.6611" x="1180.2266" y="107.292">Homeserver</text></g><g class="participant participant-tail" data-participant="MatrixHS"><rect fill="#E2E2F0" height="46.5938" rx="2.5" ry="2.5" style="stroke:#181818;stroke-width:0.5;" width="99.6611" x="1173.2266" y="938.4609"/><text fill="#000000" font-family="sans-serif" font-size="14" lengthAdjust="spacing" textLength="44.0781" x="1201.0181" y="958.4561">Matrix</text><text fill="#000000" font-family="sans-serif" font-size="14" lengthAdjust="spacing" textLength="85.6611" x="1180.2266" y="974.7529">Homeserver</text></g><g class="message" data-participant-1="User" data-participant-2="IdP"><polygon fill="#181818" points="190.3481,145.7266,200.3481,149.7266,190.3481,153.7266,194.3481,149.7266" style="stroke:#181818;stroke-width:1;"/><line style="stroke:#181818;stroke-width:1;" x1="78.5991" x2="196.3481" y1="149.7266" y2="149.7266"/><text fill="#000000" font-family="sans-serif" font-size="13" lengthAdjust="spacing" textLength="87.2358" x="85.5991" y="144.6606">Authenticatie</text></g><g class="message" data-participant-1="IdP" data-participant-2="System"><polygon fill="#181818" points="448.5132,189.9922,458.5132,193.9922,448.5132,197.9922,452.5132,193.9922" style="stroke:#181818;stroke-width:1;"/><line style="stroke:#181818;stroke-width:1;" x1="202.3481" x2="454.5132" y1="193.9922" y2="193.9922"/><text fill="#000000" font-family="sans-serif" font-size="13" lengthAdjust="spacing" textLength="175.2207" x="209.3481" y="173.7935">Authenticatieresultaat met</text><text fill="#000000" font-family="sans-serif" font-size="13" lengthAdjust="spacing" textLength="234.165" x="209.3481" y="188.9263">UZI-nummer, URA-nummer, rolcode</text></g><g class="message" data-participant-1="System" data-participant-2="NUTS"><polygon fill="#181818" points="713.9907,219.125,723.9907,223.125,713.9907,227.125,717.9907,223.125" style="stroke:#181818;stroke-width:1;"/><line style="stroke:#181818;stroke-width:1;" x1="460.5132" x2="719.9907" y1="223.125" y2="223.125"/><text fill="#000000" font-family="sans-serif" font-size="13" lengthAdjust="spacing" textLength="241.4775" x="467.5132" y="218.0591">Zoek mCSD adres voor URA-nummer</text></g><g class="message" data-participant-1="NUTS" data-participant-2="System"><polygon fill="#181818" points="471.5132,248.2578,461.5132,252.2578,471.5132,256.2578,467.5132,252.2578" style="stroke:#181818;stroke-width:1;"/><line style="stroke:#181818;stroke-width:1;stroke-dasharray:2.0,2.0;" x1="465.5132" x2="724.9907" y1="252.2578" y2="252.2578"/><text fill="#000000" font-family="sans-serif" font-size="13" lengthAdjust="spacing" textLength="131.7012" x="477.5132" y="247.1919">mCSD endpoint URL</text></g><path d="M465,265.2578 L465,305.2578 L744,305.2578 L744,275.2578 L734,265.2578 L465,265.2578" fill="#FEFFDD" style="stroke:#181818;stroke-width:0.5;"/><path d="M734,265.2578 L734,275.2578 L744,275.2578 L734,265.2578" fill="#FEFFDD" style="stroke:#181818;stroke-width:0.5;"/><text fill="#000000" font-family="sans-serif" font-size="13" lengthAdjust="spacing" textLength="190.9312" x="471" y="282.3247">Systeem bepaalt of de mCSD</text><text fill="#000000" font-family="sans-serif" font-size="13" lengthAdjust="spacing" textLength="258.5527" x="471" y="297.4575">door huidige leverancier wordt beheerd</text><path d="M10,317.5234 L74.4429,317.5234 L74.4429,324.6563 L64.4429,334.6563 L10,334.6563 L10,317.5234" fill="#EEEEEE" style="stroke:#000000;stroke-width:1.5;"/><rect fill="none" height="544.6719" style="stroke:#000000;stroke-width:1.5;" width="1282.8877" x="10" y="317.5234"/><text fill="#000000" font-family="sans-serif" font-size="13" font-weight="bold" lengthAdjust="spacing" textLength="19.4429" x="25" y="330.5903">alt</text><text fill="#000000" font-family="sans-serif" font-size="11" font-weight="bold" lengthAdjust="spacing" textLength="191.2539" x="89.4429" y="329.7339">[mCSD bij externe leverancier]</text><g class="message" data-participant-1="System" data-participant-2="mCSD"><polygon fill="#181818" points="843.5137,351.7891,853.5137,355.7891,843.5137,359.7891,847.5137,355.7891" style="stroke:#181818;stroke-width:1;"/><line style="stroke:#181818;stroke-width:1;" x1="460.5132" x2="849.5137" y1="355.7891" y2="355.7891"/><text fill="#000000" font-family="sans-serif" font-size="13" lengthAdjust="spacing" textLength="221.876" x="467.5132" y="350.7231">Zoek resource op met UZI en URA</text></g><path d="M20,370.7891 L84.4429,370.7891 L84.4429,377.9219 L74.4429,387.9219 L20,387.9219 L20,370.7891" fill="#EEEEEE" style="stroke:#000000;stroke-width:1.5;"/><rect fill="none" height="148.4688" style="stroke:#000000;stroke-width:1.5;" width="1262.8877" x="20" y="370.7891"/><text fill="#000000" font-family="sans-serif" font-size="13" font-weight="bold" lengthAdjust="spacing" textLength="19.4429" x="35" y="383.856">alt</text><text fill="#000000" font-family="sans-serif" font-size="11" font-weight="bold" lengthAdjust="spacing" textLength="187.9883" x="99.4429" y="382.9995">[Zorgverlener heeft matrix-id]</text><g class="message" data-participant-1="mCSD" data-participant-2="System"><polygon fill="#181818" points="471.5132,405.0547,461.5132,409.0547,471.5132,413.0547,467.5132,409.0547" style="stroke:#181818;stroke-width:1;"/><line style="stroke:#181818;stroke-width:1;stroke-dasharray:2.0,2.0;" x1="465.5132" x2="854.5137" y1="409.0547" y2="409.0547"/><text fill="#000000" font-family="sans-serif" font-size="13" lengthAdjust="spacing" textLength="127.6641" x="477.5132" y="403.9888">Matrix ID gevonden</text></g><g class="message" data-participant-1="System" data-participant-2="MatrixHS"><polygon fill="#181818" points="1211.0571,434.1875,1221.0571,438.1875,1211.0571,442.1875,1215.0571,438.1875" style="stroke:#181818;stroke-width:1;"/><line style="stroke:#181818;stroke-width:1;" x1="460.5132" x2="1217.0571" y1="438.1875" y2="438.1875"/><text fill="#000000" font-family="sans-serif" font-size="13" lengthAdjust="spacing" textLength="182.8442" x="467.5132" y="433.1216">Gebruik gevonden Matrix ID</text></g><line style="stroke:#000000;stroke-width:1;stroke-dasharray:2.0,2.0;" x1="20" x2="1282.8877" y1="447.1875" y2="447.1875"/><text fill="#000000" font-family="sans-serif" font-size="11" font-weight="bold" lengthAdjust="spacing" textLength="167.1968" x="25" y="457.3979">[Geen matrix-id gevonden]</text><g class="message" data-participant-1="mCSD" data-participant-2="System"><polygon fill="#181818" points="471.5132,478.125,461.5132,482.125,471.5132,486.125,467.5132,482.125" style="stroke:#181818;stroke-width:1;"/><line style="stroke:#181818;stroke-width:1;stroke-dasharray:2.0,2.0;" x1="465.5132" x2="854.5137" y1="482.125" y2="482.125"/><text fill="#000000" font-family="sans-serif" font-size="13" lengthAdjust="spacing" textLength="180.5591" x="477.5132" y="477.0591">Geen Matrix ID beschikbaar</text></g><g class="message" data-participant-1="System" data-participant-2="User"><polygon fill="#181818" points="89.5991,507.2578,79.5991,511.2578,89.5991,515.2578,85.5991,511.2578" style="stroke:#181818;stroke-width:1;"/><line style="stroke:#181818;stroke-width:1;stroke-dasharray:2.0,2.0;" x1="83.5991" x2="459.5132" y1="511.2578" y2="511.2578"/><text fill="#000000" font-family="sans-serif" font-size="13" lengthAdjust="spacing" textLength="276.1992" x="95.5991" y="506.1919">Proces stopt, verwijs naar juiste omgeving</text></g><line style="stroke:#000000;stroke-width:1;stroke-dasharray:2.0,2.0;" x1="10" x2="1292.8877" y1="527.2578" y2="527.2578"/><text fill="#000000" font-family="sans-serif" font-size="11" font-weight="bold" lengthAdjust="spacing" textLength="177.6597" x="15" y="537.4683">[mCSD bij eigen leverancier]</text><g class="message" data-participant-1="System" data-participant-2="mCSD"><polygon fill="#181818" points="843.5137,558.1953,853.5137,562.1953,843.5137,566.1953,847.5137,562.1953" style="stroke:#181818;stroke-width:1;"/><line style="stroke:#181818;stroke-width:1;" x1="460.5132" x2="849.5137" y1="562.1953" y2="562.1953"/><text fill="#000000" font-family="sans-serif" font-size="13" lengthAdjust="spacing" textLength="221.876" x="467.5132" y="557.1294">Zoek resource op met UZI en URA</text></g><path d="M397.5005,577.1953 L461.9434,577.1953 L461.9434,584.3281 L451.9434,594.3281 L397.5005,594.3281 L397.5005,577.1953" fill="#EEEEEE" style="stroke:#000000;stroke-width:1.5;"/><rect fill="none" height="278" style="stroke:#000000;stroke-width:1.5;" width="885.3872" x="397.5005" y="577.1953"/><text fill="#000000" font-family="sans-serif" font-size="13" font-weight="bold" lengthAdjust="spacing" textLength="19.4429" x="412.5005" y="590.2622">alt</text><text fill="#000000" font-family="sans-serif" font-size="11" font-weight="bold" lengthAdjust="spacing" textLength="187.9883" x="476.9434" y="589.4058">[Zorgverlener heeft matrix-id]</text><g class="message" data-participant-1="mCSD" data-participant-2="System"><polygon fill="#181818" points="471.5132,611.4609,461.5132,615.4609,471.5132,619.4609,467.5132,615.4609" style="stroke:#181818;stroke-width:1;"/><line style="stroke:#181818;stroke-width:1;stroke-dasharray:2.0,2.0;" x1="465.5132" x2="854.5137" y1="615.4609" y2="615.4609"/><text fill="#000000" font-family="sans-serif" font-size="13" lengthAdjust="spacing" textLength="127.6641" x="477.5132" y="610.395">Matrix ID gevonden</text></g><g class="message" data-participant-1="System" data-participant-2="MatrixHS"><polygon fill="#181818" points="1211.0571,640.5938,1221.0571,644.5938,1211.0571,648.5938,1215.0571,644.5938" style="stroke:#181818;stroke-width:1;"/><line style="stroke:#181818;stroke-width:1;" x1="460.5132" x2="1217.0571" y1="644.5938" y2="644.5938"/><text fill="#000000" font-family="sans-serif" font-size="13" lengthAdjust="spacing" textLength="182.8442" x="467.5132" y="639.5278">Gebruik gevonden Matrix ID</text></g><line style="stroke:#000000;stroke-width:1;stroke-dasharray:2.0,2.0;" x1="397.5005" x2="1282.8877" y1="653.5938" y2="653.5938"/><text fill="#000000" font-family="sans-serif" font-size="11" font-weight="bold" lengthAdjust="spacing" textLength="167.1968" x="402.5005" y="663.8042">[Geen matrix-id gevonden]</text><g class="message" data-participant-1="mCSD" data-participant-2="System"><polygon fill="#181818" points="471.5132,684.5313,461.5132,688.5313,471.5132,692.5313,467.5132,688.5313" style="stroke:#181818;stroke-width:1;"/><line style="stroke:#181818;stroke-width:1;stroke-dasharray:2.0,2.0;" x1="465.5132" x2="854.5137" y1="688.5313" y2="688.5313"/><text fill="#000000" font-family="sans-serif" font-size="13" lengthAdjust="spacing" textLength="180.5591" x="477.5132" y="683.4653">Geen Matrix ID beschikbaar</text></g><g class="message" data-participant-1="System" data-participant-2="MatrixIS"><polygon fill="#181818" points="969.1572,713.6641,979.1572,717.6641,969.1572,721.6641,973.1572,717.6641" style="stroke:#181818;stroke-width:1;"/><line style="stroke:#181818;stroke-width:1;" x1="460.5132" x2="975.1572" y1="717.6641" y2="717.6641"/><text fill="#000000" font-family="sans-serif" font-size="13" lengthAdjust="spacing" textLength="126.02" x="467.5132" y="712.5981">Maak Matrix ID aan</text></g><g class="message" data-participant-1="MatrixIS" data-participant-2="MatrixHS"><polygon fill="#181818" points="1211.0571,742.7969,1221.0571,746.7969,1211.0571,750.7969,1215.0571,746.7969" style="stroke:#181818;stroke-width:1;"/><line style="stroke:#181818;stroke-width:1;" x1="981.1572" x2="1217.0571" y1="746.7969" y2="746.7969"/><text fill="#000000" font-family="sans-serif" font-size="13" lengthAdjust="spacing" textLength="161.313" x="988.1572" y="741.731">Cre&#235;er nieuwe gebruiker</text></g><g class="message" data-participant-1="MatrixIS" data-participant-2="MatrixIS"><line style="stroke:#181818;stroke-width:1;" x1="981.1572" x2="1023.1572" y1="775.9297" y2="775.9297"/><line style="stroke:#181818;stroke-width:1;" x1="1023.1572" x2="1023.1572" y1="775.9297" y2="788.9297"/><line style="stroke:#181818;stroke-width:1;" x1="982.1572" x2="1023.1572" y1="788.9297" y2="788.9297"/><polygon fill="#181818" points="992.1572,784.9297,982.1572,788.9297,992.1572,792.9297,988.1572,788.9297" style="stroke:#181818;stroke-width:1;"/><text fill="#000000" font-family="sans-serif" font-size="13" lengthAdjust="spacing" textLength="227.8999" x="988.1572" y="770.8638">Voeg 3PIDs toe (UZI, URA, rolcode)</text></g><g class="message" data-participant-1="MatrixIS" data-participant-2="System"><polygon fill="#181818" points="471.5132,814.0625,461.5132,818.0625,471.5132,822.0625,467.5132,818.0625" style="stroke:#181818;stroke-width:1;"/><line style="stroke:#181818;stroke-width:1;stroke-dasharray:2.0,2.0;" x1="465.5132" x2="980.1572" y1="818.0625" y2="818.0625"/><text fill="#000000" font-family="sans-serif" font-size="13" lengthAdjust="spacing" textLength="111.2427" x="477.5132" y="812.9966">Nieuwe Matrix ID</text></g><g class="message" data-participant-1="System" data-participant-2="mCSD"><polygon fill="#181818" points="843.5137,843.1953,853.5137,847.1953,843.5137,851.1953,847.5137,847.1953" style="stroke:#181818;stroke-width:1;"/><line style="stroke:#181818;stroke-width:1;" x1="460.5132" x2="849.5137" y1="847.1953" y2="847.1953"/><text fill="#000000" font-family="sans-serif" font-size="13" lengthAdjust="spacing" textLength="200.9414" x="467.5132" y="842.1294">Update resource met Matrix ID</text></g><path d="M20,876.1953 L84.4429,876.1953 L84.4429,883.3281 L74.4429,893.3281 L20,893.3281 L20,876.1953" fill="#EEEEEE" style="stroke:#000000;stroke-width:1.5;"/><rect fill="none" height="46.2656" style="stroke:#000000;stroke-width:1.5;" width="503.5259" x="20" y="876.1953"/><text fill="#000000" font-family="sans-serif" font-size="13" font-weight="bold" lengthAdjust="spacing" textLength="19.4429" x="35" y="889.2622">alt</text><text fill="#000000" font-family="sans-serif" font-size="11" font-weight="bold" lengthAdjust="spacing" textLength="202.2969" x="99.4429" y="888.4058">[Succesvolle Matrix ID resolutie]</text><g class="message" data-participant-1="System" data-participant-2="User"><polygon fill="#181818" points="89.5991,910.4609,79.5991,914.4609,89.5991,918.4609,85.5991,914.4609" style="stroke:#181818;stroke-width:1;"/><line style="stroke:#181818;stroke-width:1;stroke-dasharray:2.0,2.0;" x1="83.5991" x2="459.5132" y1="914.4609" y2="914.4609"/><text fill="#000000" font-family="sans-serif" font-size="13" lengthAdjust="spacing" textLength="220.416" x="95.5991" y="909.395">Toegang tot Matrix communicatie</text></g><!--SRC=[xLJ1Rk8m4BtxAqQSMgcSziQXKbMa9T9kXKZP0-9Yx6am97PaEr2-QJzZVsnd70W9RV-WDyj-yzxCcnbB5Ps7qShvue2-H8j-13B0Cg0NjVJHA5DB6s6KQRJHn1FClJiOZNvjxp8zlqzmEWpHJ1XE8I9M2P3pkHfYNfQlEKnDK8waJmd6LqDGzPnF8KT_C0eJX2-6aDyoUlE-jbs633_NqRvb-USHCrTXk0NFSY68faIOeIpZLacFNT5d36HJM61mPHEDi_ogC0GXs3OOFx8V4tXgufOpKZ8Q57J5BwqHDuyUGrD6AIDK6DTskSh6jgagz0-mN3nrP-zAvJGAqP8m7HisWPN3VJ86f2OkE3XgwZLI9AV7FVM4HQjhPyYFvUAN4DP516-ARGJtTkaNj0VIsc0joGr-qzWs0K2pphOnsXG89PAFqYeg1uxEwqWnMqIl1Ga1qml134bxOtQ0xn6z7GHU15Dj33pNHaMvnYi4LxD5G0vH-boYe11cxKymaEmR2QLMZOqc2BIoVG-kdIpmu2mDJy9TzI_ZC86VkF6DsNV0Qoo5O1cG47JR2GuPFoWdy5L-Wq5jpNuZfHzaG14yJvFpU468heuFG5KUpIw09Jpi6aDWS1Kf6bjmEbOBaNAw6atjiTysVs7pO_T9SB9otmkHigM-08RfFdlyzvTii0QR8r8oANlqNuGm_n-71VoOPzC0qI7SaS5fnRlTlhy9xfNpqihqFVdOncMj9U_nfP7SnO6BDgrZkubvesYk3guiUxGfblyr59-CuYiL86r1sNUyobLLOy-_77F_1m00]--></g></svg>